<svg width="442" height="442" viewBox="0 0 442 442" fill="none" xmlns="http://www.w3.org/2000/svg">
<path d="M432.77 227.647L432.84 223.117L438.039 223.198L438.082 220.448L431.082 220.34L430.97 227.619L432.77 227.647Z" fill="white"/>
<path d="M432.335 235.982L432.585 231.359L433.474 231.407L433.244 235.661L434.951 235.753L435.181 231.499L435.97 231.542L435.725 236.075L437.532 236.173L437.926 228.893L430.936 228.516L430.538 235.885L432.335 235.982Z" fill="white"/>
<path d="M429.789 243.848L429.503 246.683L436.793 244.16L437.105 241.056L430.464 237.132L430.179 239.967L431.125 240.454L430.813 243.559L429.789 243.848ZM432.844 241.351L434.889 242.401L432.676 243.022L432.844 241.351Z" fill="white"/>
<path d="M428.671 252.371L428.26 255.241L430.984 253.996C431.218 254.898 431.813 255.539 432.882 255.692C434.466 255.92 435.365 255.008 435.652 253.009L436.399 247.802L429.47 246.808L429.079 249.53L431.237 249.839L431.023 251.334L428.671 252.371ZM434.216 250.267L433.944 252.168C433.86 252.752 433.669 253.027 433.243 252.966C432.798 252.902 432.652 252.578 432.736 251.994L433.009 250.094L434.216 250.267Z" fill="white"/>
<path d="M433.905 263.069L430.163 262.355L434.43 260.319L434.971 257.48L428.095 256.168L427.58 258.87L431.313 259.581L427.057 261.61L426.514 264.459L433.39 265.77L433.905 263.069Z" fill="white"/>
<path d="M430.7 276.86L426.884 274.282L431.474 273.869L432.414 270.239L425.637 268.485L424.948 271.147L428.608 272.094L424.595 272.512L424.024 274.719L427.332 277.022L423.673 276.075L422.984 278.737L429.761 280.491L430.7 276.86Z" fill="white"/>
<path d="M428.069 286.352C428.784 284.092 428.631 281.558 426.028 280.735C423.415 279.909 421.833 281.894 421.118 284.154C420.404 286.413 420.554 288.957 423.166 289.783C425.769 290.606 427.355 288.611 428.069 286.352ZM422.825 284.693C423.211 283.473 424.112 283.045 425.19 283.385C426.257 283.723 426.748 284.592 426.362 285.812C425.977 287.032 425.075 287.461 424.008 287.123C422.93 286.782 422.439 285.914 422.825 284.693Z" fill="white"/>
<path d="M417.674 294.586L416.676 297.309L419.6 296.655C419.642 297.587 420.091 298.337 421.105 298.709C422.607 299.26 423.675 298.555 424.37 296.658L426.181 291.72L419.609 289.31L418.662 291.892L420.709 292.642L420.189 294.06L417.674 294.586ZM423.535 293.678L422.874 295.481C422.671 296.035 422.427 296.265 422.023 296.117C421.601 295.962 421.526 295.615 421.729 295.061L422.39 293.258L423.535 293.678Z" fill="white"/>
<path d="M415.268 305.385L417.04 301.107L417.862 301.447L416.232 305.383L417.812 306.038L419.442 302.102L420.172 302.404L418.434 306.599L420.107 307.291L422.896 300.556L416.429 297.877L413.605 304.696L415.268 305.385Z" fill="white"/>
<path d="M415.082 310.172L413.626 309.485L411.944 313.048L413.4 313.735L415.082 310.172Z" fill="white"/>
<path d="M406.634 322.911L408.748 318.905L413.347 321.332L414.63 318.9L408.44 315.633L405.042 322.071L406.634 322.911Z" fill="white"/>
<path d="M402.366 330.295L404.691 326.291L405.461 326.738L403.321 330.422L404.8 331.281L406.94 327.597L407.623 327.994L405.342 331.92L406.908 332.829L410.569 326.525L404.516 323.009L400.809 329.391L402.366 330.295Z" fill="white"/>
<path d="M396.776 335.749L395.238 338.148L402.879 339.2L404.563 336.574L400.421 330.068L398.882 332.467L399.505 333.329L397.82 335.956L396.776 335.749ZM400.631 334.907L401.979 336.77L399.724 336.321L400.631 334.907Z" fill="white"/>
<path d="M391.724 343.113L390.052 345.483L393.045 345.612C392.844 346.522 393.083 347.364 393.965 347.986C395.273 348.908 396.487 348.505 397.652 346.854L400.683 342.555L394.963 338.521L393.378 340.768L395.159 342.025L394.289 343.259L391.724 343.113ZM397.619 343.759L396.513 345.328C396.172 345.811 395.877 345.969 395.526 345.721C395.158 345.462 395.175 345.107 395.516 344.625L396.622 343.056L397.619 343.759Z" fill="white"/>
<path d="M391.721 354.772L388.707 352.442L393.434 352.557L395.201 350.271L389.663 345.99L387.981 348.165L390.988 350.489L386.275 350.373L384.501 352.667L390.039 356.948L391.721 354.772Z" fill="white"/>
<path d="M382.493 365.763L380.261 361.735L384.539 363.447L387.022 360.637L381.776 356.002L379.955 358.063L382.788 360.565L379.022 359.119L377.512 360.828L379.418 364.38L376.585 361.877L374.765 363.938L380.01 368.573L382.493 365.763Z" fill="white"/>
<path d="M376.009 372.871C377.667 371.177 378.674 368.847 376.722 366.938C374.764 365.022 372.456 366.079 370.799 367.773C369.141 369.467 368.127 371.805 370.085 373.721C372.037 375.63 374.352 374.565 376.009 372.871ZM372.078 369.025C372.973 368.11 373.97 368.135 374.778 368.925C375.579 369.708 375.625 370.705 374.73 371.62C373.835 372.535 372.837 372.51 372.037 371.727C371.229 370.936 371.183 369.94 372.078 369.025Z" fill="white"/>
<path d="M363.09 375.464L360.973 377.447L363.878 378.178C363.497 379.029 363.56 379.901 364.299 380.69C365.392 381.857 366.664 381.708 368.138 380.327L371.977 376.731L367.192 371.622L365.185 373.502L366.675 375.093L365.573 376.126L363.09 375.464ZM368.732 377.29L367.331 378.603C366.901 379.006 366.579 379.102 366.285 378.788C365.977 378.459 366.067 378.116 366.497 377.712L367.898 376.4L368.732 377.29Z" fill="white"/>
<path d="M356.042 384.062L359.545 381.034L360.127 381.708L356.904 384.493L358.022 385.787L361.245 383.001L361.762 383.599L358.327 386.568L359.51 387.937L365.026 383.17L360.449 377.874L354.865 382.7L356.042 384.062Z" fill="white"/>
<path d="M353.827 388.158L352.833 386.892L349.734 389.324L350.728 390.591L353.827 388.158Z" fill="white"/>
<path d="M340.564 395.754L344.247 393.116L347.275 397.344L349.511 395.742L345.434 390.052L339.516 394.291L340.564 395.754Z" fill="white"/>
<path d="M333.484 400.407L337.353 397.864L337.842 398.608L334.282 400.947L335.221 402.377L338.781 400.037L339.215 400.697L335.421 403.191L336.415 404.703L342.507 400.7L338.663 394.85L332.496 398.902L333.484 400.407Z" fill="white"/>
<path d="M326.012 402.788L323.564 404.246L329.93 408.602L332.61 407.005L331.811 399.333L329.363 400.792L329.535 401.842L326.854 403.439L326.012 402.788ZM329.837 403.757L330.211 406.025L328.394 404.617L329.837 403.757Z" fill="white"/>
<path d="M318.162 407.116L315.607 408.489L318.227 409.942C317.64 410.666 317.477 411.525 317.988 412.477C318.746 413.886 320.013 414.068 321.792 413.112L326.426 410.623L323.113 404.456L320.69 405.758L321.722 407.678L320.392 408.393L318.162 407.116ZM323.146 410.33L321.455 411.238C320.935 411.518 320.6 411.527 320.397 411.149C320.184 410.752 320.358 410.443 320.878 410.164L322.569 409.255L323.146 410.33Z" fill="white"/>
<path d="M312.899 417.542L311.247 414.109L315.422 416.328L318.027 415.074L314.991 408.767L312.513 409.959L314.161 413.384L309.999 411.169L307.386 412.427L310.422 418.735L312.899 417.542Z" fill="white"/>
<path d="M299.718 423.206L299.532 418.605L302.586 422.056L306.066 420.66L303.461 414.163L300.908 415.187L302.315 418.695L299.6 415.712L297.483 416.56L297.591 420.59L296.184 417.082L293.632 418.105L296.238 424.602L299.718 423.206Z" fill="white"/>
<path d="M290.7 426.642C292.943 425.877 294.892 424.25 294.01 421.666C293.125 419.073 290.589 418.977 288.346 419.743C286.103 420.508 284.144 422.138 285.029 424.731C285.911 427.315 288.457 427.408 290.7 426.642ZM288.924 421.437C290.135 421.023 291.014 421.495 291.379 422.564C291.741 423.624 291.333 424.535 290.122 424.948C288.911 425.361 288.031 424.89 287.67 423.83C287.305 422.761 287.712 421.85 288.924 421.437Z" fill="white"/>
<path d="M277.973 423.134L275.189 423.946L277.449 425.912C276.724 426.498 276.387 427.305 276.689 428.341C277.137 429.878 278.338 430.319 280.277 429.754L285.327 428.282L283.369 421.562L280.729 422.331L281.338 424.424L279.889 424.847L277.973 423.134ZM282.181 427.314L280.337 427.851C279.771 428.016 279.441 427.956 279.321 427.543C279.195 427.111 279.43 426.845 279.996 426.68L281.839 426.143L282.181 427.314Z" fill="white"/>
<path d="M267.722 427.633L272.218 426.524L272.431 427.388L268.295 428.409L268.704 430.069L272.84 429.049L273.03 429.816L268.622 430.903L269.055 432.66L276.133 430.914L274.457 424.118L267.291 425.886L267.722 427.633Z" fill="white"/>
<path d="M263.955 430.277L263.642 428.698L259.777 429.466L260.091 431.045L263.955 430.277Z" fill="white"/>
<path d="M248.683 431.044L253.162 430.366L253.94 435.508L256.659 435.096L255.611 428.175L248.413 429.264L248.683 431.044Z" fill="white"/>
<path d="M240.299 431.989L244.9 431.472L244.999 432.357L240.766 432.832L240.956 434.531L245.19 434.056L245.278 434.841L240.766 435.348L240.968 437.146L248.213 436.333L247.432 429.377L240.098 430.2L240.299 431.989Z" fill="white"/>
<path d="M232.566 430.727L229.722 430.913L233.414 437.686L236.527 437.481L239.301 430.284L236.457 430.471L236.133 431.484L233.02 431.689L232.566 430.727ZM235.532 433.328L234.835 435.518L233.856 433.438L235.532 433.328Z" fill="white"/>
<path d="M223.608 431.041L220.709 431.108L222.387 433.59C221.535 433.97 221.001 434.662 221.026 435.742C221.063 437.342 222.111 438.078 224.13 438.031L229.389 437.909L229.226 430.911L226.477 430.975L226.528 433.154L225.018 433.189L223.608 431.041ZM226.597 436.163L224.678 436.208C224.088 436.221 223.785 436.078 223.775 435.648C223.764 435.199 224.06 435.002 224.65 434.988L226.569 434.943L226.597 436.163Z" fill="white"/>
<path d="M213.356 437.946L213.444 434.137L216.155 438.011L219.045 438.078L219.207 431.08L216.458 431.016L216.37 434.815L213.668 430.952L210.769 430.884L210.607 437.882L213.356 437.946Z" fill="white"/>
<path d="M199.085 437.017L201.003 432.83L202.163 437.29L205.898 437.623L206.518 430.65L203.779 430.406L203.444 434.172L202.375 430.282L200.103 430.08L198.374 433.721L198.709 429.956L195.97 429.712L195.35 436.684L199.085 437.017Z" fill="white"/>
<path d="M189.519 435.998C191.866 436.326 194.339 435.752 194.717 433.048C195.095 430.335 192.874 429.106 190.527 428.778C188.179 428.451 185.696 429.023 185.318 431.736C184.94 434.44 187.172 435.671 189.519 435.998ZM190.279 430.551C191.547 430.728 192.119 431.545 191.963 432.664C191.808 433.773 191.034 434.402 189.766 434.225C188.499 434.048 187.926 433.231 188.081 432.122C188.237 431.003 189.011 430.374 190.279 430.551Z" fill="white"/>
<path d="M179.752 427.111L176.901 426.579L178.031 429.353C177.119 429.549 176.454 430.117 176.255 431.178C175.962 432.751 176.835 433.687 178.82 434.058L183.991 435.024L185.276 428.143L182.573 427.638L182.173 429.781L180.688 429.504L179.752 427.111ZM181.62 432.74L179.733 432.387C179.153 432.279 178.885 432.077 178.964 431.654C179.047 431.211 179.377 431.08 179.957 431.188L181.844 431.541L181.62 432.74Z" fill="white"/>
<path d="M168.579 426.487L173.091 427.528L172.891 428.395L168.739 427.438L168.355 429.104L172.506 430.061L172.329 430.831L167.905 429.811L167.498 431.575L174.602 433.213L176.175 426.392L168.983 424.733L168.579 426.487Z" fill="white"/>
<path d="M164.04 427.139L164.473 425.588L160.678 424.529L160.245 426.08L164.04 427.139Z" fill="white"/>
<path d="M150.078 420.924L154.381 422.338L152.757 427.278L155.37 428.137L157.556 421.487L150.64 419.214L150.078 420.924Z" fill="white"/>
<path d="M142.173 417.958L146.508 419.585L146.195 420.418L142.206 418.921L141.606 420.522L145.594 422.019L145.317 422.758L141.066 421.164L140.43 422.858L147.255 425.419L149.715 418.865L142.805 416.273L142.173 417.958Z" fill="white"/>
<path d="M135.851 413.332L133.231 412.212L133.459 419.923L136.328 421.149L142.058 415.985L139.438 414.865L138.69 415.622L135.821 414.396L135.851 413.332ZM137.32 416.994L135.707 418.632L135.776 416.334L137.32 416.994Z" fill="white"/>
<path d="M127.739 409.549L125.126 408.292L125.493 411.265C124.562 411.216 123.772 411.591 123.303 412.564C122.609 414.005 123.208 415.137 125.028 416.013L129.768 418.294L132.803 411.987L130.325 410.794L129.38 412.758L128.019 412.103L127.739 409.549ZM128.075 415.471L126.345 414.638C125.813 414.382 125.608 414.117 125.794 413.729C125.989 413.324 126.342 413.283 126.874 413.539L128.604 414.371L128.075 415.471Z" fill="white"/>
<path d="M116.224 411.452L118.027 408.096L118.69 412.778L121.236 414.145L124.549 407.979L122.127 406.678L120.328 410.025L119.669 405.357L117.114 403.985L113.801 410.151L116.224 411.452Z" fill="white"/>
<path d="M103.896 404.161L107.504 401.3L106.515 405.801L109.694 407.791L113.408 401.857L111.077 400.398L109.071 403.602L109.882 399.65L107.949 398.44L104.757 400.901L106.763 397.697L104.432 396.238L100.717 402.172L103.896 404.161Z" fill="white"/>
<path d="M95.819 398.926C97.7608 400.285 100.224 400.898 101.79 398.661C103.361 396.417 101.941 394.312 99.9989 392.953C98.0572 391.594 95.5855 390.975 94.0145 393.22C92.4492 395.457 93.8773 397.567 95.819 398.926ZM98.9726 394.42C100.021 395.154 100.16 396.142 99.5119 397.067C98.8698 397.985 97.8941 398.193 96.8454 397.459C95.7967 396.725 95.6581 395.737 96.3003 394.82C96.9482 393.894 97.9239 393.686 98.9726 394.42Z" fill="white"/>
<path d="M91.1526 386.604L88.8518 384.839L88.6031 387.824C87.7017 387.586 86.8514 387.791 86.194 388.648C85.22 389.917 85.5746 391.147 87.1772 392.377L91.3505 395.579L95.6115 390.025L93.4296 388.351L92.1027 390.081L90.9046 389.162L91.1526 386.604ZM90.2704 392.469L88.7471 391.3C88.279 390.941 88.1323 390.639 88.3941 390.298C88.668 389.941 89.0216 389.973 89.4897 390.332L91.0131 391.501L90.2704 392.469Z" fill="white"/>
<path d="M81.5278 381.059L85.0854 384.022L84.5158 384.706L81.2425 381.979L80.1481 383.293L83.4213 386.02L82.9157 386.627L79.4274 383.721L78.2689 385.112L83.8703 389.778L88.3504 384.399L82.6799 379.676L81.5278 381.059Z" fill="white"/>
<path d="M77.1473 379.567L78.235 378.38L75.3302 375.718L74.2425 376.905L77.1473 379.567Z" fill="white"/>
<path d="M67.517 367.754L70.7202 370.957L67.0432 374.634L68.9878 376.579L73.9375 371.629L68.7898 366.481L67.517 367.754Z" fill="white"/>
<path d="M61.7785 361.545L64.9189 364.948L64.265 365.551L61.3755 362.421L60.119 363.581L63.0085 366.711L62.428 367.247L59.3485 363.911L58.0186 365.139L62.9633 370.495L68.1069 365.747L63.1011 360.325L61.7785 361.545Z" fill="white"/>
<path d="M58.2376 354.611L56.3976 352.434L53.1435 359.428L55.1578 361.811L62.5953 359.766L60.7553 357.589L59.7475 357.931L57.7333 355.548L58.2376 354.611ZM57.9081 358.543L55.7315 359.283L56.8235 357.26L57.9081 358.543Z" fill="white"/>
<path d="M52.7141 347.632L50.9405 345.338L49.9375 348.161C49.1267 347.701 48.2524 347.681 47.3979 348.342C46.132 349.321 46.1607 350.6 47.3961 352.198L50.6132 356.36L56.1513 352.079L54.4694 349.903L52.7447 351.236L51.8212 350.042L52.7141 347.632ZM50.3633 353.077L49.189 351.558C48.8282 351.091 48.7633 350.762 49.1035 350.499C49.4596 350.224 49.7934 350.345 50.1542 350.812L51.3285 352.331L50.3633 353.077Z" fill="white"/>
<path d="M41.5999 344.221L44.7134 342.025L43.2137 346.509L44.8794 348.871L50.5998 344.836L49.0148 342.589L45.9094 344.779L47.4067 340.309L45.7352 337.939L40.0149 341.973L41.5999 344.221Z" fill="white"/>
<path d="M33.8346 332.177L38.3411 331.229L35.4452 334.814L37.3998 338.014L43.3737 334.366L41.9403 332.019L38.7144 333.989L41.2054 330.816L40.0169 328.87L36.0613 329.645L39.2872 327.675L37.8538 325.328L31.8799 328.977L33.8346 332.177Z" fill="white"/>
<path d="M28.9609 323.885C30.0903 325.969 32.0197 327.619 34.4198 326.318C36.8287 325.012 36.4993 322.495 35.3699 320.411C34.2405 318.328 32.3064 316.669 29.8975 317.974C27.4974 319.275 27.8315 321.801 28.9609 323.885ZM33.7962 321.264C34.4062 322.389 34.0885 323.335 33.095 323.874C32.1104 324.407 31.1445 324.157 30.5346 323.032C29.9246 321.907 30.2423 320.961 31.227 320.427C32.2204 319.889 33.1863 320.139 33.7962 321.264Z" fill="white"/>
<path d="M30.3098 310.786L29.0425 308.178L27.4838 310.736C26.7841 310.12 25.9322 309.923 24.9607 310.394C23.5216 311.094 23.2881 312.352 24.1709 314.169L26.4696 318.9L32.7658 315.841L31.564 313.368L29.6032 314.32L28.9433 312.962L30.3098 310.786ZM26.8958 315.636L26.0568 313.909C25.7989 313.378 25.8027 313.043 26.1895 312.855C26.5943 312.658 26.8963 312.845 27.1541 313.376L27.9932 315.103L26.8958 315.636Z" fill="white"/>
<path d="M24.0583 301.172L25.8937 305.423L25.0766 305.776L23.3879 301.865L21.818 302.543L23.5067 306.454L22.7815 306.767L20.9817 302.599L19.32 303.316L22.2099 310.009L28.6364 307.234L25.7108 300.459L24.0583 301.172Z" fill="white"/>
<path d="M20.9273 298.172L22.4326 297.601L21.0346 293.917L19.5293 294.488L20.9273 298.172Z" fill="white"/>
<path d="M17.6146 283.215L19.0292 287.519L14.0893 289.143L14.948 291.755L21.598 289.569L19.3246 282.653L17.6146 283.215Z" fill="white"/>
<path d="M15.2367 274.895L16.4985 279.35L15.6421 279.593L14.4812 275.494L12.8359 275.96L13.9969 280.059L13.2368 280.274L11.9995 275.906L10.258 276.399L12.2447 283.413L18.9798 281.506L16.9686 274.405L15.2367 274.895Z" fill="white"/>
<path d="M15.3028 267.529L14.6413 264.757L8.5845 269.533L9.30867 272.568L16.8695 274.095L16.208 271.323L15.1545 271.173L14.4304 268.139L15.3028 267.529ZM13.2366 270.891L10.9601 270.57L12.8466 269.257L13.2366 270.891Z" fill="white"/>
<path d="M13.4763 258.603L12.933 255.754L10.7611 257.818C10.2464 257.04 9.47535 256.628 8.41447 256.83C6.8428 257.13 6.28924 258.284 6.66771 260.268L7.65322 265.435L14.5293 264.123L14.014 261.422L11.8726 261.831L11.5897 260.347L13.4763 258.603ZM8.91593 262.394L8.5562 260.508C8.44566 259.929 8.53679 259.606 8.95918 259.526C9.40121 259.441 9.64405 259.7 9.75459 260.28L10.1143 262.166L8.91593 262.394Z" fill="white"/>
<path d="M5.05628 250.229L8.82765 249.687L5.45397 253L5.86445 255.861L12.7935 254.867L12.4029 252.145L8.64141 252.684L12.0066 249.383L11.5947 246.512L4.66569 247.506L5.05628 250.229Z" fill="white"/>
<path d="M3.58747 235.992L8.03325 237.193L3.82561 239.073L4.11463 242.812L11.0938 242.272L10.8819 239.531L7.11311 239.822L10.7732 238.125L10.5975 235.851L6.72082 234.747L10.4896 234.456L10.2776 231.714L3.29846 232.253L3.58747 235.992Z" fill="white"/>
<path d="M2.99419 226.54C3.05822 228.909 4.03191 231.253 6.76092 231.18C9.49992 231.106 10.3456 228.712 10.2815 226.343C10.2175 223.974 9.24355 221.619 6.50454 221.693C3.77554 221.767 2.93017 224.171 2.99419 226.54ZM8.49219 226.391C8.52677 227.671 7.8154 228.37 6.68581 228.401C5.56622 228.431 4.81812 227.771 4.78354 226.491C4.74896 225.212 5.46033 224.512 6.57992 224.482C7.7095 224.452 8.45761 225.112 8.49219 226.391Z" fill="white"/>
<path d="M10.1233 214.86L10.1793 211.961L7.62848 213.532C7.28514 212.665 6.61588 212.102 5.53608 212.081C3.93638 212.05 3.15664 213.065 3.11766 215.085L3.01615 220.344L10.0148 220.479L10.0679 217.73L7.88832 217.688L7.91746 216.178L10.1233 214.86ZM4.87888 217.629L4.91594 215.71C4.92732 215.12 5.08308 214.823 5.513 214.831C5.96292 214.84 6.1471 215.143 6.13571 215.733L6.09866 217.653L4.87888 217.629Z" fill="white"/>
<path d="M8.89267 203.541L8.60704 208.162L7.71873 208.107L7.98154 203.855L6.2748 203.75L6.01199 208.002L5.22349 207.953L5.50358 203.422L3.69703 203.31L3.24729 210.586L10.234 211.018L10.6892 203.652L8.89267 203.541Z" fill="white"/>
<path d="M7.4728 199.226L9.07343 199.4L9.49789 195.483L7.89726 195.309L7.4728 199.226Z" fill="white"/>
<path d="M11.3491 184.033L10.6542 188.51L5.51571 187.712L5.09383 190.429L12.011 191.503L13.1278 184.31L11.3491 184.033Z" fill="white"/>
<path d="M12.872 176.147L11.9872 180.691L11.1136 180.521L11.9277 176.34L10.2492 176.013L9.43511 180.194L8.65967 180.043L9.52732 175.587L7.75068 175.241L6.35747 182.397L13.2285 183.735L14.6389 176.491L12.872 176.147Z" fill="white"/>
<path d="M16.4323 168.883L17.1044 166.113L9.53777 167.611L8.80206 170.643L14.8406 175.442L15.5127 172.673L14.6426 172.06L15.3783 169.028L16.4323 168.883ZM13.0631 170.936L11.1815 169.615L13.4593 169.303L13.0631 170.936Z" fill="white"/>
<path d="M18.8718 160.048L19.6832 157.264L16.8106 158.114C16.7056 157.188 16.2066 156.469 15.1698 156.167C13.6337 155.719 12.6159 156.496 12.0507 158.435L10.5789 163.485L17.2993 165.443L18.0688 162.803L15.9758 162.193L16.3983 160.744L18.8718 160.048ZM13.0861 161.351L13.6233 159.508C13.7884 158.941 14.0163 158.695 14.4291 158.816C14.8612 158.942 14.9596 159.283 14.7946 159.849L14.2573 161.693L13.0861 161.351Z" fill="white"/>
<path d="M14.8007 149.849L18.4111 151.066L13.9063 152.503L12.9831 155.241L19.6164 157.477L20.4948 154.871L16.8939 153.658L21.386 152.228L22.3124 149.479L15.6791 147.243L14.8007 149.849Z" fill="white"/>
<path d="M20.0666 136.07L23.487 139.153L18.8841 138.925L17.4492 142.389L23.9164 145.068L24.9687 142.527L21.4764 141.081L25.5083 141.224L26.3807 139.118L23.4241 136.378L26.9165 137.824L27.9688 135.284L21.5015 132.605L20.0666 136.07Z" fill="white"/>
<path d="M23.9405 127.107C22.9206 129.247 22.7222 131.777 25.1865 132.952C27.6599 134.131 29.5012 132.384 30.521 130.244C31.5409 128.105 31.7436 125.565 29.2702 124.386C26.8059 123.211 24.9603 124.968 23.9405 127.107ZM28.9052 129.474C28.3544 130.629 27.4029 130.929 26.3828 130.443C25.3718 129.961 25.0055 129.033 25.5563 127.877C26.1071 126.722 27.0587 126.422 28.0697 126.904C29.0897 127.391 29.456 128.319 28.9052 129.474Z" fill="white"/>
<path d="M35.3103 120.48L36.6734 117.92L33.6877 118.166C33.7741 117.237 33.4325 116.432 32.4792 115.925C31.0669 115.173 29.912 115.725 28.9626 117.507L26.4902 122.15L32.6688 125.44L33.9614 123.013L32.0372 121.988L32.7469 120.656L35.3103 120.48ZM29.3804 120.574L30.2828 118.879C30.5602 118.358 30.8336 118.164 31.2131 118.366C31.6103 118.578 31.637 118.932 31.3597 119.452L30.4572 121.147L29.3804 120.574Z" fill="white"/>
<path d="M38.9816 110.425L36.6414 114.42L35.8735 113.97L38.0267 110.295L36.5512 109.43L34.398 113.106L33.7163 112.707L36.0111 108.789L34.4493 107.874L30.7646 114.165L36.8046 117.703L40.5348 111.335L38.9816 110.425Z" fill="white"/>
<path d="M39.8669 105.593L41.2157 106.472L43.3672 103.171L42.0184 102.292L39.8669 105.593Z" fill="white"/>
<path d="M49.8756 94.2267L47.2376 97.9094L43.0103 94.8813L41.4089 97.117L47.0996 101.193L51.3389 95.2749L49.8756 94.2267Z" fill="white"/>
<path d="M55.1473 87.407L52.3022 91.0598L51.6001 90.5129L54.2178 87.152L52.8687 86.1013L50.251 89.4621L49.6277 88.9767L52.4175 85.3949L50.9895 84.2827L46.5099 90.034L52.0325 94.3354L56.5673 88.5131L55.1473 87.407Z" fill="white"/>
<path d="M61.3148 82.8674L63.1626 80.6976L55.7326 78.6258L53.7097 81.0012L56.9383 88.0064L58.7861 85.8366L58.2853 84.8978L60.3082 82.5225L61.3148 82.8674ZM57.3817 83.1826L56.2971 81.1556L58.471 81.9036L57.3817 83.1826Z" fill="white"/>
<path d="M67.1877 76.3618L69.1624 74.238L66.2138 73.7084C66.5358 72.8335 66.4123 71.9676 65.6214 71.2322C64.4497 70.1427 63.1917 70.3795 61.8162 71.8588L58.2344 75.7108L63.3607 80.4775L65.2333 78.4636L63.6368 76.9791L64.6651 75.8733L67.1877 76.3618ZM61.4325 74.9294L62.74 73.5234C63.1417 73.0913 63.4559 72.9737 63.7708 73.2665C64.1003 73.573 64.0352 73.9221 63.6334 74.3541L62.326 75.7602L61.4325 74.9294Z" fill="white"/>
<path d="M68.614 64.9201L71.2884 67.6337L66.6197 66.8855L64.5614 68.9142L69.4751 73.8998L71.4337 71.9694L68.7663 69.2629L73.4208 70.011L75.4863 67.9753L70.5726 62.9897L68.614 64.9201Z" fill="white"/>
<path d="M79.2612 55.1881L80.9339 59.4787L76.9234 57.2086L74.0861 59.6607L78.6633 64.9569L80.744 63.1587L78.2723 60.2988L81.8108 62.2367L83.5358 60.7459L82.1233 56.9705L84.595 59.8304L86.6757 58.0322L82.0985 52.7361L79.2612 55.1881Z" fill="white"/>
<path d="M86.5621 49.0368C84.6923 50.4932 83.3818 52.6674 85.0593 54.8212C86.743 56.9829 89.1719 56.2445 91.0417 54.7881C92.9114 53.3318 94.2299 51.1514 92.5462 48.9898C90.8687 46.836 88.4319 47.5805 86.5621 49.0368ZM89.9418 53.376C88.9319 54.1625 87.9469 54.0044 87.2525 53.1129C86.5643 52.2293 86.6522 51.2356 87.662 50.449C88.6719 49.6625 89.6569 49.8206 90.3451 50.7042C91.0395 51.5957 90.9516 52.5894 89.9418 53.376Z" fill="white"/>
<path d="M99.5648 48.273L101.929 46.5929L99.1482 45.4774C99.6406 44.6858 99.6949 43.8129 99.0692 42.9326C98.1422 41.6284 96.8624 41.6057 95.2159 42.776L90.9286 45.8234L94.9841 51.5289L97.2255 49.9357L95.9626 48.1589L97.1933 47.284L99.5648 48.273ZM94.2187 45.7055L95.7837 44.5931C96.2646 44.2513 96.596 44.1998 96.8451 44.5502C97.1058 44.917 96.9714 45.2457 96.4905 45.5875L94.9255 46.6999L94.2187 45.7055Z" fill="white"/>
<path d="M108.395 40.2303L104.507 42.7444L104.024 41.997L107.601 39.6838L106.673 38.2479L103.096 40.561L102.667 39.8976L106.479 37.4325L105.496 35.9125L99.3745 39.871L103.175 45.7491L109.373 41.7418L108.395 40.2303Z" fill="white"/>
<path d="M111.442 36.2707L112.251 37.6629L115.658 35.6839L114.849 34.2917L111.442 36.2707Z" fill="white"/>
<path d="M125.559 30.6042L121.544 32.7037L119.134 28.096L116.698 29.3705L119.942 35.5733L126.393 32.1992L125.559 30.6042Z" fill="white"/>
<path d="M132.15 27.4524L127.97 29.4448L127.587 28.6414L131.433 26.8083L130.697 25.2647L126.851 27.0978L126.511 26.3847L130.61 24.4311L129.831 22.7972L123.25 25.9342L126.262 32.253L132.924 29.0773L132.15 27.4524Z" fill="white"/>
<path d="M139.866 26.0665L142.491 24.9563L136.78 19.7714L133.906 20.9868L133.649 28.696L136.274 27.5857L136.248 26.522L139.121 25.3066L139.866 26.0665ZM136.21 24.5837L136.15 22.2856L137.757 23.9293L136.21 24.5837Z" fill="white"/>
<path d="M148.288 22.7825L151.007 21.7739L148.612 19.9746C149.293 19.338 149.572 18.5092 149.197 17.4966C148.64 15.9965 147.41 15.6422 145.516 16.3447L140.585 18.1741L143.019 24.7371L145.598 23.7807L144.839 21.7367L146.255 21.2116L148.288 22.7825ZM143.793 18.9147L145.593 18.2469C146.146 18.0417 146.479 18.078 146.629 18.4812C146.785 18.9031 146.57 19.1855 146.017 19.3907L144.217 20.0585L143.793 18.9147Z" fill="white"/>
<path d="M155.072 13.0814L156.234 16.7097L152.405 13.9357L149.653 14.8174L151.789 21.4836L154.407 20.6446L153.248 17.0258L157.064 19.7934L159.826 18.9086L157.69 12.2424L155.072 13.0814Z" fill="white"/>
<path d="M169.768 9.01097L169.312 13.5935L166.768 9.75103L163.127 10.6491L164.803 17.4454L167.473 16.7868L166.568 13.1168L168.842 16.4491L171.056 15.903L171.51 11.8978L172.415 15.5677L175.085 14.9091L173.409 8.11285L169.768 9.01097Z" fill="white"/>
<path d="M178.251 7.02138C175.924 7.47432 173.772 8.82048 174.294 11.5002C174.817 14.1897 177.318 14.63 179.644 14.177C181.97 13.7241 184.132 12.376 183.609 9.68651C183.087 7.00683 180.577 6.56845 178.251 7.02138ZM179.302 12.42C178.045 12.6646 177.238 12.078 177.023 10.9689C176.808 9.86952 177.336 9.02302 178.593 8.77839C179.849 8.53377 180.656 9.12036 180.87 10.2197C181.086 11.3289 180.558 12.1754 179.302 12.42Z" fill="white"/>
<path d="M190.954 12.1141L193.823 11.6912L191.853 9.43434C192.651 8.95278 193.096 8.19984 192.938 7.13139C192.705 5.54849 191.575 4.94682 189.577 5.24139L184.373 6.00845L185.394 12.9336L188.114 12.5326L187.797 10.3759L189.29 10.1557L190.954 12.1141ZM187.358 7.39808L189.257 7.11808C189.841 7.03204 190.159 7.13669 190.222 7.5621C190.288 8.00729 190.019 8.239 189.435 8.32504L187.536 8.60503L187.358 7.39808Z" fill="white"/>
<path d="M201.824 9.03702L197.219 9.51811L197.127 8.63292L201.364 8.19029L201.186 6.48954L196.949 6.93218L196.867 6.14646L201.382 5.67472L201.194 3.87452L193.944 4.632L194.671 11.5941L202.011 10.8273L201.824 9.03702Z" fill="white"/>
<path d="M205.831 6.92174L205.925 8.52905L209.858 8.30114L209.765 6.69384L205.831 6.92174Z" fill="white"/>
<path d="M220.482 8.22845L215.952 8.29839L215.872 3.09901L213.123 3.14147L213.231 10.1406L220.51 10.0282L220.482 8.22845Z" fill="white"/>
<path d="M229.591 8.41966L224.963 8.29458L224.987 7.40491L229.245 7.51999L229.291 5.81061L225.033 5.69553L225.054 4.90582L229.592 5.02847L229.641 3.21913L222.354 3.02219L222.165 10.0196L229.542 10.219L229.591 8.41966Z" fill="white"/>
<path d="M238.109 10.7673L240.951 10.976L238.232 3.75749L235.121 3.52902L231.377 10.273L234.219 10.4817L234.681 9.52288L237.792 9.75136L238.109 10.7673ZM235.53 7.78044L236.525 5.7077L237.206 7.90346L235.53 7.78044Z" fill="white"/>
<path d="M246.237 11.6014L249.118 11.9359L247.799 9.24587C248.695 8.98749 249.32 8.37549 249.444 7.3027C249.629 5.71338 248.693 4.83962 246.687 4.60657L241.462 3.99971L240.654 10.953L243.386 11.2702L243.638 9.1048L245.138 9.27901L246.237 11.6014ZM243.985 6.1149L245.892 6.33641C246.478 6.40448 246.759 6.5881 246.709 7.01522C246.657 7.46222 246.337 7.61634 245.751 7.54827L243.844 7.32675L243.985 6.1149Z" fill="white"/>
<path d="M257.206 6.12561L256.592 9.88592L254.442 5.67486L251.59 5.20962L250.463 12.1183L253.177 12.561L253.789 8.81059L255.931 13.0102L258.793 13.477L259.92 6.56831L257.206 6.12561Z" fill="white"/>
<path d="M270.893 8.90608L268.417 12.7891L267.882 8.21177L264.228 7.36917L262.655 14.1902L265.334 14.8081L266.184 11.1247L266.708 15.1249L268.93 15.6372L271.144 12.2684L270.294 15.9518L272.974 16.5697L274.547 9.74868L270.893 8.90608Z" fill="white"/>
<path d="M279.28 10.929C277 10.2832 274.472 10.5129 273.728 13.1395C272.981 15.7758 275.013 17.2972 277.294 17.9431C279.574 18.589 282.112 18.362 282.858 15.7257C283.602 13.0991 281.56 11.5749 279.28 10.929ZM277.781 16.2209C276.55 15.872 276.094 14.9844 276.402 13.8971C276.708 12.8195 277.561 12.3025 278.792 12.6513C280.024 13.0001 280.479 13.8878 280.174 14.9654C279.866 16.0526 279.013 16.5697 277.781 16.2209Z" fill="white"/>
<path d="M288.005 21.0903L290.757 22.0063L290.016 19.1036C290.946 19.0336 291.682 18.5622 292.023 17.5375C292.529 16.0194 291.791 14.973 289.875 14.3349L284.884 12.6735L282.673 19.3152L285.282 20.1838L285.971 18.1154L287.404 18.5923L288.005 21.0903ZM286.922 15.2595L288.743 15.8659C289.303 16.0523 289.54 16.2893 289.405 16.6973C289.262 17.1243 288.918 17.2098 288.358 17.0235L286.536 16.417L286.922 15.2595Z" fill="white"/>
<path d="M300.056 23.6068L295.733 21.9478L296.052 21.1169L300.029 22.6433L300.642 21.0469L296.665 19.5204L296.948 18.7829L301.187 20.4097L301.835 18.7198L295.029 16.1077L292.521 22.6429L299.411 25.2873L300.056 23.6068Z" fill="white"/>
<path d="M303.859 23.2284L303.215 24.7041L306.826 26.2795L307.47 24.8038L303.859 23.2284Z" fill="white"/>
<path d="M316.87 31.28L312.803 29.2853L315.093 24.6166L312.624 23.4056L309.542 29.6904L316.078 32.8961L316.87 31.28Z" fill="white"/>
<path d="M324.623 35.4355L320.552 33.2291L320.976 32.4467L324.722 34.4767L325.536 32.9733L321.791 30.9433L322.168 30.2488L326.159 32.4122L327.022 30.821L320.613 27.347L317.277 33.5011L323.765 37.0179L324.623 35.4355Z" fill="white"/>
<path d="M330.2 40.8211L332.643 42.2887L333.47 34.6197L330.795 33.0131L324.413 37.3452L326.856 38.8128L327.7 38.165L330.375 39.7716L330.2 40.8211ZM329.245 36.9928L331.067 35.5909L330.685 37.8579L329.245 36.9928Z" fill="white"/>
<path d="M337.645 45.5947L340.063 47.1961L340.103 44.2006C341.019 44.3753 341.853 44.1121 342.45 43.2117C343.333 41.8777 342.894 40.6754 341.21 39.5599L336.825 36.6554L332.959 42.4914L335.252 44.0099L336.456 42.1924L337.715 43.0262L337.645 45.5947ZM338.118 39.6829L339.719 40.7431C340.211 41.0689 340.378 41.3597 340.14 41.7182C339.892 42.0933 339.537 42.0861 339.045 41.7603L337.444 40.7001L338.118 39.6829Z" fill="white"/>
<path d="M349.222 45.1739L346.98 48.255L346.957 43.5268L344.62 41.8268L340.502 47.4875L342.726 49.1052L344.962 46.0322L344.982 50.7464L347.328 52.4524L351.445 46.7916L349.222 45.1739Z" fill="white"/>
<path d="M360.62 54.1467L356.659 56.4958L358.246 52.1691L355.365 49.7691L350.885 55.1476L352.998 56.9077L355.417 54.0032L354.081 57.8101L355.833 59.2693L359.328 57.2609L356.909 60.1653L359.022 61.9254L363.502 56.5468L360.62 54.1467Z" fill="white"/>
<path d="M367.892 60.3695C366.15 58.762 363.791 57.8231 361.94 59.8291C360.081 61.8425 361.205 64.1187 362.947 65.7262C364.688 67.3338 367.054 68.2794 368.913 66.2661C370.765 64.2601 369.633 61.9771 367.892 60.3695ZM364.161 64.4109C363.22 63.5427 363.216 62.5451 363.982 61.7148C364.742 60.8918 365.737 60.8166 366.677 61.6848C367.618 62.553 367.622 63.5507 366.863 64.3737C366.096 65.204 365.102 65.2791 364.161 64.4109Z" fill="white"/>
<path d="M370.767 73.0837L372.81 75.1417L373.457 72.2166C374.318 72.5733 375.188 72.4846 375.955 71.7237C377.09 70.5964 376.904 69.33 375.481 67.8965L371.775 64.1636L366.807 69.0953L368.745 71.0469L370.292 69.511L371.356 70.5826L370.767 73.0837ZM372.428 67.3904L373.781 68.753C374.196 69.1717 374.301 69.4903 373.996 69.7932C373.677 70.1102 373.33 70.0312 372.915 69.6125L371.562 68.2499L372.428 67.3904Z" fill="white"/>
<path d="M380.078 80.4213L376.963 76.9964L377.621 76.3975L380.488 79.5487L381.753 78.398L378.886 75.2468L379.47 74.7152L382.526 78.0735L383.864 76.8555L378.959 71.463L373.781 76.1735L378.747 81.6325L380.078 80.4213Z" fill="white"/>
<path d="M383.577 81.7068L382.34 82.7372L384.861 85.7645L386.099 84.7341L383.577 81.7068Z" fill="white"/>
<path d="M392.257 95.6186L389.525 92.0045L393.674 88.8694L392.016 86.6754L386.431 90.8958L390.821 96.7038L392.257 95.6186Z" fill="white"/>
<path d="M396.511 101.683L393.856 97.8894L394.586 97.3791L397.028 100.869L398.429 99.8888L395.987 96.3986L396.634 95.9457L399.237 99.6653L400.72 98.6274L396.54 92.6548L390.805 96.6684L395.036 102.715L396.511 101.683Z" fill="white"/>
<path d="M399.726 109.994L401.248 112.404L405.438 105.928L403.773 103.29L396.124 104.286L397.645 106.696L398.69 106.497L400.356 109.136L399.726 109.994ZM400.597 106.146L402.855 105.714L401.493 107.566L400.597 106.146Z" fill="white"/>
<path d="M404.231 117.641L405.669 120.159L407.054 117.503C407.793 118.071 408.656 118.212 409.594 117.676C410.983 116.883 411.132 115.611 410.131 113.857L407.522 109.289L401.444 112.761L402.807 115.149L404.7 114.068L405.449 115.379L404.231 117.641ZM407.314 112.575L408.266 114.242C408.559 114.755 408.578 115.09 408.204 115.303C407.813 115.526 407.5 115.36 407.207 114.847L406.255 113.18L407.314 112.575Z" fill="white"/>
<path d="M414.787 122.566L411.398 124.307L413.508 120.075L412.188 117.505L405.961 120.703L407.217 123.149L410.598 121.413L408.492 125.631L409.817 128.211L416.044 125.012L414.787 122.566Z" fill="white"/>
<path d="M420.515 134.839L415.922 135.163L419.28 132.007L417.781 128.57L411.364 131.369L412.464 133.889L415.929 132.378L413.028 135.182L413.939 137.272L417.964 137.043L414.499 138.555L415.599 141.075L422.015 138.277L420.515 134.839Z" fill="white"/>
<path d="M424.318 143.922C423.486 141.703 421.801 139.804 419.245 140.763C416.68 141.726 416.66 144.264 417.493 146.483C418.326 148.702 420.014 150.611 422.579 149.648C425.135 148.689 425.151 146.141 424.318 143.922ZM419.169 145.855C418.719 144.656 419.164 143.763 420.222 143.366C421.27 142.973 422.193 143.353 422.642 144.551C423.092 145.75 422.648 146.643 421.599 147.036C420.541 147.433 419.619 147.053 419.169 145.855Z" fill="white"/>
<path d="M421.254 156.868L422.149 159.627L424.046 157.308C424.654 158.015 425.47 158.328 426.498 157.995C428.02 157.501 428.425 156.287 427.801 154.365L426.177 149.362L419.519 151.523L420.368 154.139L422.442 153.466L422.908 154.902L421.254 156.868ZM425.305 152.537L425.897 154.363C426.079 154.924 426.029 155.256 425.62 155.388C425.192 155.527 424.919 155.301 424.737 154.739L424.144 152.913L425.305 152.537Z" fill="white"/>
<path d="M426.018 166.79L424.774 162.33L425.631 162.091L426.776 166.194L428.423 165.734L427.278 161.631L428.039 161.419L429.259 165.791L431.003 165.305L429.043 158.283L422.3 160.165L424.285 167.274L426.018 166.79Z" fill="white"/>
<path d="M428.941 171.091L427.371 171.446L428.242 175.289L429.812 174.933L428.941 171.091Z" fill="white"/>
<path d="M430.035 185.684L429.221 181.228L434.336 180.292L433.841 177.587L426.955 178.846L428.265 186.008L430.035 185.684Z" fill="white"/>
<path d="M431.318 194.619L430.678 190.033L431.56 189.91L432.148 194.129L433.842 193.893L433.253 189.674L434.036 189.564L434.663 194.061L436.456 193.811L435.448 186.591L428.515 187.558L429.535 194.867L431.318 194.619Z" fill="white"/>
<path d="M430.249 201.921L430.523 204.758L437.179 200.86L436.878 197.754L429.599 195.203L429.873 198.04L430.896 198.332L431.197 201.438L430.249 201.921ZM432.757 198.876L434.968 199.506L432.919 200.548L432.757 198.876Z" fill="white"/>
<path d="M430.863 211.374L431.008 214.271L433.444 212.526C433.846 213.367 434.553 213.882 435.632 213.828C437.23 213.748 437.937 212.681 437.836 210.664L437.572 205.41L430.581 205.761L430.719 208.508L432.896 208.398L432.972 209.907L430.863 211.374ZM435.902 208.248L435.999 210.165C436.028 210.754 435.893 211.062 435.464 211.083C435.014 211.106 434.81 210.816 434.78 210.226L434.684 208.309L435.902 208.248Z" fill="white"/>
<path d="M438.058 220.308L434.248 220.338L438.036 217.508L438.014 214.618L431.014 214.672L431.036 217.422L434.836 217.393L431.057 220.212L431.08 223.112L438.079 223.058L438.058 220.308Z" fill="white"/>
</svg>
