<svg width="442" height="442" viewBox="0 0 442 442" fill="none" xmlns="http://www.w3.org/2000/svg">
<path d="M436.166 228.158L437.976 228.186L438.088 220.897L431.089 220.789L431.047 223.538L433.547 223.577L433.481 227.826L435.191 227.853L435.256 223.603L436.236 223.618L436.166 228.158Z" fill="white"/>
<path d="M437.83 233.81C437.967 231.444 437.196 229.025 434.47 228.868C431.735 228.709 430.689 231.022 430.552 233.388C430.415 235.754 431.186 238.183 433.921 238.342C436.647 238.5 437.693 236.176 437.83 233.81ZM432.339 233.492C432.413 232.214 433.181 231.578 434.309 231.643C435.427 231.708 436.117 232.429 436.043 233.707C435.969 234.984 435.201 235.621 434.083 235.556C432.954 235.491 432.265 234.77 432.339 233.492Z" fill="white"/>
<path d="M431.408 246.263L431.861 241.756L437.035 242.276L437.31 239.54L430.345 238.839L429.617 246.083L431.408 246.263Z" fill="white"/>
<path d="M430.293 254.336L430.919 249.85L436.069 250.569L436.45 247.845L429.517 246.878L428.51 254.088L430.293 254.336Z" fill="white"/>
<path d="M434.644 260.4C435.07 258.069 434.601 255.574 431.916 255.083C429.22 254.59 427.899 256.757 427.473 259.089C427.046 261.42 427.514 263.925 430.209 264.418C432.894 264.909 434.218 262.731 434.644 260.4ZM429.233 259.411C429.464 258.152 430.304 257.614 431.416 257.817C432.517 258.019 433.113 258.819 432.883 260.078C432.653 261.337 431.812 261.875 430.711 261.673C429.599 261.47 429.003 260.67 429.233 259.411Z" fill="white"/>
<path d="M431.322 275.045L427.511 272.964L431.852 272.827L432.381 270.61L428.57 268.528L432.91 268.392L433.572 265.62L426.231 266.222L425.551 269.072L429.062 270.99L425.064 271.115L424.384 273.965L430.661 277.817L431.322 275.045Z" fill="white"/>
<path d="M428.028 286.509L424.215 285.335C423.24 285.035 423.017 284.568 423.297 283.66C423.574 282.762 424.023 282.492 424.998 282.792L428.811 283.967L429.62 281.338L425.683 280.126C423.055 279.317 422.222 281.069 421.586 283.134C420.948 285.208 420.653 287.115 423.281 287.925L427.219 289.137L428.028 286.509Z" fill="white"/>
<path d="M423.045 293.286C423.592 292.132 423.79 291.661 424.148 291.788C424.422 291.885 424.497 292.241 424.177 293.146C423.87 294.013 423.565 294.276 423.188 294.143L422.26 296.763C423.504 297.204 424.76 296.534 425.754 293.725C426.658 291.17 426.394 289.698 424.943 289.184C423.576 288.7 422.836 289.382 421.844 291.344C420.843 293.334 420.746 293.607 420.398 293.484C420.077 293.37 420.085 292.959 420.388 292.102C420.765 291.036 421.098 290.666 421.607 290.846L422.565 288.141C421.132 287.634 419.903 288.408 418.848 291.387C417.931 293.979 417.874 295.699 419.618 296.316C421.371 296.937 422.025 295.45 423.045 293.286Z" fill="white"/>
<path d="M419.469 300.446L417.979 299.835L416.485 303.481L417.975 304.092L419.469 300.446Z" fill="white"/>
<path d="M414.757 315.059L416.4 315.82L419.463 309.205L413.111 306.263L411.956 308.759L414.224 309.809L412.438 313.666L413.99 314.384L415.776 310.528L416.665 310.939L414.757 315.059Z" fill="white"/>
<path d="M414.149 320.557C415.232 318.449 415.505 315.925 413.077 314.678C410.64 313.426 408.747 315.118 407.664 317.226C406.582 319.334 406.304 321.867 408.741 323.119C411.169 324.366 413.066 322.665 414.149 320.557ZM409.257 318.044C409.842 316.906 410.802 316.634 411.807 317.15C412.803 317.662 413.142 318.601 412.557 319.739C411.972 320.878 411.012 321.149 410.016 320.637C409.011 320.121 408.672 319.183 409.257 318.044Z" fill="white"/>
<path d="M403.16 329.44L405.406 325.506L409.922 328.085L411.285 325.697L405.207 322.225L401.597 328.547L403.16 329.44Z" fill="white"/>
<path d="M399.005 336.137L401.394 332.288L405.812 335.031L407.263 332.695L401.316 329.002L397.476 335.187L399.005 336.137Z" fill="white"/>
<path d="M400.609 343.313C401.939 341.351 402.516 338.879 400.257 337.347C397.99 335.809 395.906 337.259 394.576 339.221C393.245 341.182 392.663 343.662 394.93 345.2C397.19 346.733 399.279 345.274 400.609 343.313ZM396.057 340.225C396.776 339.166 397.761 339.013 398.697 339.647C399.624 340.276 399.846 341.248 399.128 342.308C398.409 343.367 397.423 343.52 396.496 342.891C395.561 342.257 395.339 341.285 396.057 340.225Z" fill="white"/>
<path d="M391.502 355.552L388.86 352.107L392.884 353.738L394.265 351.924L391.622 348.479L395.646 350.11L397.373 347.842L390.416 345.424L388.641 347.755L391.076 350.929L387.369 349.426L385.594 351.757L389.776 357.819L391.502 355.552Z" fill="white"/>
<path d="M383.675 364.894L380.666 362.274C379.896 361.604 379.882 361.088 380.506 360.371C381.123 359.662 381.643 359.598 382.412 360.268L385.421 362.888L387.227 360.814L384.12 358.108C382.046 356.303 380.574 357.567 379.156 359.196C377.731 360.833 376.688 362.457 378.762 364.263L381.869 366.968L383.675 364.894Z" fill="white"/>
<path d="M376.376 369.065C377.342 368.231 377.714 367.88 377.991 368.141C378.202 368.34 378.127 368.696 377.468 369.394C376.837 370.063 376.451 370.181 376.16 369.906L374.252 371.928C375.213 372.834 376.631 372.729 378.676 370.562C380.536 368.59 380.89 367.137 379.77 366.08C378.715 365.085 377.763 365.41 376.063 366.803C374.343 368.219 374.144 368.43 373.875 368.176C373.627 367.942 373.8 367.57 374.425 366.908C375.2 366.086 375.654 365.882 376.047 366.252L378.016 364.165C376.911 363.122 375.474 363.333 373.305 365.632C371.418 367.632 370.671 369.181 372.017 370.451C373.369 371.728 374.568 370.632 376.376 369.065Z" fill="white"/>
<path d="M370.336 374.034L369.219 372.876L366.382 375.61L367.5 376.769L370.336 374.034Z" fill="white"/>
<path d="M360.166 385.48L361.365 386.837L366.828 382.01L362.193 376.764L360.132 378.585L361.788 380.458L358.602 383.272L359.735 384.554L362.92 381.74L363.569 382.474L360.166 385.48Z" fill="white"/>
<path d="M357.186 390.43C359.029 388.939 360.3 386.742 358.583 384.619C356.861 382.488 354.446 383.271 352.603 384.761C350.76 386.251 349.481 388.455 351.204 390.586C352.921 392.708 355.343 391.92 357.186 390.43ZM353.728 386.153C354.723 385.348 355.711 385.488 356.422 386.367C357.126 387.238 357.056 388.233 356.061 389.038C355.066 389.842 354.078 389.702 353.374 388.831C352.663 387.953 352.733 386.958 353.728 386.153Z" fill="white"/>
<path d="M343.815 393.936L347.449 391.231L350.554 395.402L352.76 393.76L348.581 388.145L342.741 392.492L343.815 393.936Z" fill="white"/>
<path d="M337.284 398.422L341.014 395.852L343.964 400.134L346.229 398.574L342.257 392.809L336.262 396.94L337.284 398.422Z" fill="white"/>
<path d="M335.664 405.753C337.673 404.495 339.199 402.466 337.75 400.152C336.296 397.83 333.804 398.316 331.796 399.574C329.787 400.831 328.252 402.865 329.706 405.188C331.155 407.502 333.655 407.01 335.664 405.753ZM332.745 401.091C333.83 400.412 334.794 400.67 335.394 401.628C335.988 402.577 335.799 403.556 334.714 404.236C333.629 404.915 332.665 404.657 332.071 403.708C331.471 402.75 331.66 401.77 332.745 401.091Z" fill="white"/>
<path d="M322.467 413.235L321.442 409.016L324.464 412.134L326.46 411.033L325.434 406.813L328.456 409.931L330.952 408.555L325.566 403.532L323 404.947L323.945 408.834L321.161 405.961L318.596 407.376L319.972 414.612L322.467 413.235Z" fill="white"/>
<path d="M311.643 418.582L309.939 414.974C309.504 414.052 309.698 413.573 310.557 413.167C311.407 412.766 311.909 412.916 312.345 413.838L314.048 417.446L316.535 416.272L314.776 412.547C313.602 410.06 311.746 410.626 309.793 411.549C307.831 412.475 306.223 413.544 307.397 416.031L309.156 419.756L311.643 418.582Z" fill="white"/>
<path d="M303.12 419.52C304.341 419.149 304.823 418.98 304.97 419.331C305.082 419.598 304.869 419.893 303.984 420.264C303.135 420.619 302.735 420.57 302.581 420.201L300.016 421.274C300.526 422.492 301.865 422.972 304.614 421.821C307.114 420.775 308.027 419.59 307.433 418.17C306.873 416.832 305.871 416.742 303.751 417.326C301.605 417.921 301.337 418.033 301.194 417.691C301.063 417.378 301.373 417.107 302.212 416.756C303.254 416.32 303.752 416.317 303.961 416.815L306.608 415.707C306.021 414.305 304.622 413.915 301.707 415.135C299.17 416.197 297.858 417.31 298.573 419.016C299.291 420.732 300.832 420.217 303.12 419.52Z" fill="white"/>
<path d="M295.677 421.586L295.123 420.074L291.424 421.43L291.978 422.942L295.677 421.586Z" fill="white"/>
<path d="M281.72 427.944L282.265 429.67L289.216 427.472L287.106 420.798L284.484 421.627L285.237 424.011L281.185 425.292L281.701 426.922L285.753 425.641L286.048 426.575L281.72 427.944Z" fill="white"/>
<path d="M277.099 431.231C279.386 430.611 281.436 429.113 280.722 426.478C280.005 423.834 277.48 423.575 275.192 424.195C272.905 424.815 270.845 426.316 271.562 428.96C272.276 431.595 274.811 431.851 277.099 431.231ZM275.66 425.923C276.896 425.588 277.743 426.115 278.039 427.205C278.331 428.286 277.866 429.169 276.631 429.504C275.395 429.838 274.548 429.312 274.255 428.231C273.959 427.14 274.425 426.258 275.66 425.923Z" fill="white"/>
<path d="M263.375 429.035L267.793 428.034L268.943 433.106L271.625 432.498L270.078 425.671L262.978 427.28L263.375 429.035Z" fill="white"/>
<path d="M255.564 430.48L260.017 429.648L260.972 434.759L263.675 434.255L262.39 427.374L255.234 428.71L255.564 430.48Z" fill="white"/>
<path d="M251.189 436.509C253.535 436.173 255.751 434.935 255.364 432.233C254.975 429.521 252.499 428.956 250.153 429.293C247.807 429.63 245.581 430.868 245.97 433.581C246.358 436.283 248.843 436.846 251.189 436.509ZM250.408 431.065C251.675 430.883 252.451 431.509 252.612 432.628C252.771 433.736 252.202 434.555 250.935 434.737C249.668 434.919 248.891 434.293 248.732 433.184C248.571 432.066 249.141 431.247 250.408 431.065Z" fill="white"/>
<path d="M236.14 437.992L236.904 433.718L238.411 437.79L240.682 437.588L241.446 433.314L242.953 437.386L245.792 437.134L242.89 430.364L239.972 430.624L239.268 434.562L237.88 430.81L234.962 431.069L233.301 438.245L236.14 437.992Z" fill="white"/>
<path d="M224.011 438.487L223.919 434.498C223.895 433.479 224.267 433.12 225.217 433.098C226.157 433.076 226.555 433.417 226.578 434.437L226.671 438.426L229.42 438.362L229.324 434.243C229.261 431.494 227.335 431.258 225.175 431.308C223.006 431.359 221.103 431.683 221.167 434.432L221.262 438.551L224.011 438.487Z" fill="white"/>
<path d="M215.046 435.878C216.313 436.037 216.822 436.079 216.813 436.459C216.806 436.749 216.492 436.932 215.532 436.91C214.612 436.888 214.267 436.68 214.276 436.28L211.497 436.216C211.467 437.536 212.494 438.52 215.473 438.589C218.183 438.651 219.499 437.942 219.535 436.402C219.569 434.953 218.69 434.462 216.517 434.132C214.314 433.801 214.024 433.794 214.033 433.424C214.04 433.084 214.433 432.963 215.343 432.984C216.473 433.01 216.928 433.211 216.916 433.751L219.785 433.817C219.82 432.298 218.701 431.372 215.542 431.298C212.793 431.235 211.141 431.717 211.098 433.566C211.055 435.426 212.672 435.583 215.046 435.878Z" fill="white"/>
<path d="M207.381 434.737L207.493 433.131L203.563 432.858L203.451 434.464L207.381 434.737Z" fill="white"/>
<path d="M192.06 434.872L191.858 436.67L199.103 437.484L199.883 430.527L197.151 430.221L196.872 432.705L192.648 432.231L192.457 433.93L196.681 434.404L196.572 435.378L192.06 434.872Z" fill="white"/>
<path d="M186.502 435.998C188.844 436.361 191.326 435.826 191.744 433.128C192.165 430.42 189.962 429.157 187.62 428.794C185.279 428.43 182.787 428.964 182.367 431.672C181.948 434.37 184.16 435.634 186.502 435.998ZM187.346 430.563C188.611 430.759 189.171 431.585 188.997 432.701C188.825 433.808 188.042 434.425 186.777 434.229C185.512 434.032 184.952 433.207 185.124 432.1C185.297 430.983 186.081 430.366 187.346 430.563Z" fill="white"/>
<path d="M174.863 428.42L179.306 429.302L178.292 434.403L180.99 434.939L182.354 428.073L175.213 426.654L174.863 428.42Z" fill="white"/>
<path d="M167.145 426.571L171.551 427.623L170.344 432.681L173.019 433.319L174.644 426.51L167.563 424.82L167.145 426.571Z" fill="white"/>
<path d="M160.706 430.313C162.986 430.959 165.515 430.729 166.259 428.103C167.005 425.466 164.973 423.945 162.693 423.299C160.412 422.653 157.874 422.88 157.128 425.516C156.384 428.143 158.426 429.667 160.706 430.313ZM162.205 425.021C163.436 425.37 163.892 426.258 163.584 427.345C163.279 428.423 162.425 428.94 161.194 428.591C159.962 428.242 159.507 427.354 159.812 426.277C160.12 425.19 160.973 424.672 162.205 425.021Z" fill="white"/>
<path d="M146.378 425.568L148.81 421.971L148.536 426.304L150.693 427.041L153.126 423.444L152.851 427.777L155.548 428.698L155.642 421.333L152.869 420.387L150.629 423.701L150.882 419.709L148.109 418.762L143.681 424.647L146.378 425.568Z" fill="white"/>
<path d="M135.086 421.074L136.627 417.394C137.021 416.453 137.506 416.277 138.383 416.644C139.25 417.006 139.474 417.48 139.081 418.421L137.54 422.101L140.077 423.163L141.667 419.363C142.729 416.826 141.066 415.826 139.074 414.992C137.072 414.154 135.202 413.675 134.14 416.212L132.55 420.013L135.086 421.074Z" fill="white"/>
<path d="M128.759 415.414C129.855 416.07 130.304 416.313 130.143 416.658C130.02 416.92 129.659 416.961 128.789 416.554C127.956 416.165 127.724 415.835 127.893 415.473L125.375 414.295C124.816 415.491 125.36 416.805 128.06 418.068C130.514 419.216 132.005 419.096 132.658 417.701C133.272 416.388 132.665 415.585 130.809 414.408C128.925 413.218 128.663 413.095 128.819 412.76C128.963 412.452 129.372 412.499 130.196 412.885C131.22 413.363 131.556 413.73 131.327 414.22L133.927 415.435C134.571 414.058 133.919 412.76 131.057 411.422C128.566 410.257 126.86 410.033 126.076 411.709C125.288 413.394 126.705 414.189 128.759 415.414Z" fill="white"/>
<path d="M122.197 411.254L122.949 409.83L119.464 407.991L118.713 409.415L122.197 411.254Z" fill="white"/>
<path d="M108.146 405.169L107.232 406.731L113.522 410.416L117.06 404.376L114.687 402.986L113.423 405.143L109.756 402.995L108.892 404.47L112.559 406.619L112.064 407.464L108.146 405.169Z" fill="white"/>
<path d="M102.666 403.981C104.661 405.26 107.147 405.774 108.621 403.476C110.1 401.169 108.597 399.124 106.602 397.844C104.607 396.565 102.112 396.046 100.633 398.352C99.1591 400.65 100.671 402.701 102.666 403.981ZM105.635 399.351C106.713 400.042 106.891 401.024 106.281 401.975C105.676 402.918 104.71 403.165 103.632 402.474C102.555 401.783 102.377 400.801 102.981 399.858C103.592 398.907 104.558 398.66 105.635 399.351Z" fill="white"/>
<path d="M95.0465 392.295L98.7483 394.906L95.7512 399.156L97.9985 400.741L102.033 395.02L96.0839 390.824L95.0465 392.295Z" fill="white"/>
<path d="M88.7654 387.506L92.3695 390.25L89.2193 394.388L91.4072 396.054L95.6479 390.484L89.8559 386.074L88.7654 387.506Z" fill="white"/>
<path d="M81.2917 388.261C83.1127 389.778 85.5162 390.595 87.2634 388.498C89.017 386.392 87.7784 384.176 85.9574 382.659C84.1364 381.143 81.7252 380.319 79.9716 382.424C78.2244 384.521 79.4707 386.744 81.2917 388.261ZM84.8118 384.035C85.7953 384.854 85.8506 385.85 85.1274 386.718C84.4105 387.579 83.4208 387.705 82.4373 386.885C81.4538 386.066 81.3985 385.07 82.1154 384.209C82.8386 383.341 83.8283 383.216 84.8118 384.035Z" fill="white"/>
<path d="M70.2051 378.217L73.8848 375.912L71.8804 379.764L73.5558 381.31L77.2355 379.005L75.2311 382.857L77.3253 384.79L80.3906 378.093L78.2377 376.105L74.8479 378.23L76.6946 374.681L74.5416 372.694L68.1109 376.284L70.2051 378.217Z" fill="white"/>
<path d="M61.6944 369.57L64.5865 366.822C65.3259 366.119 65.8414 366.153 66.4958 366.842C67.1434 367.523 67.1584 368.047 66.419 368.75L63.5268 371.499L65.4213 373.492L68.4077 370.654C70.4011 368.759 69.2813 367.175 67.7933 365.609C66.2984 364.036 64.7797 362.844 62.7863 364.739L59.7999 367.577L61.6944 369.57Z" fill="white"/>
<path d="M58.0834 361.727C58.8193 362.77 59.1315 363.174 58.8449 363.424C58.6262 363.614 58.2794 363.505 57.649 362.781C57.0449 362.087 56.9659 361.692 57.2676 361.43L55.4422 359.333C54.4466 360.2 54.412 361.622 56.3688 363.869C58.1483 365.913 59.56 366.408 60.7215 365.397C61.8151 364.445 61.5852 363.465 60.3649 361.637C59.1249 359.786 58.9345 359.567 59.2136 359.324C59.47 359.101 59.8241 359.31 60.4217 359.996C61.1636 360.848 61.3224 361.32 60.9151 361.675L62.7997 363.839C63.9461 362.841 63.8763 361.39 61.8013 359.007C59.9956 356.933 58.5265 356.038 57.1312 357.252C55.7284 358.474 56.7016 359.774 58.0834 361.727Z" fill="white"/>
<path d="M53.7238 355.247L54.9868 354.248L52.5431 351.158L51.2802 352.156L53.7238 355.247Z" fill="white"/>
<path d="M43.3327 344.032L41.8651 345.092L46.1319 351.002L51.8076 346.905L50.1981 344.676L48.171 346.139L45.6835 342.693L44.297 343.694L46.7845 347.14L45.9899 347.713L43.3327 344.032Z" fill="white"/>
<path d="M38.8449 340.828C40.1536 342.804 42.221 344.277 44.497 342.77C46.7814 341.257 46.2314 338.778 44.9227 336.802C43.6139 334.826 41.541 333.345 39.2567 334.858C36.9806 336.365 37.5362 338.852 38.8449 340.828ZM43.4303 337.791C44.1371 338.858 43.904 339.828 42.9619 340.452C42.0281 341.07 41.044 340.906 40.3372 339.839C39.6304 338.772 39.8635 337.802 40.7973 337.184C41.7394 336.56 42.7235 336.723 43.4303 337.791Z" fill="white"/>
<path d="M36.5064 326.955L38.8391 330.839L34.3815 333.516L35.7976 335.874L41.7982 332.269L38.0494 326.029L36.5064 326.955Z" fill="white"/>
<path d="M32.6985 320.063L34.8865 324.03L30.3333 326.541L31.6616 328.949L37.7909 325.568L34.2746 319.194L32.6985 320.063Z" fill="white"/>
<path d="M25.6665 317.981C26.7259 320.101 28.5993 321.814 31.0414 320.594C33.4924 319.369 33.247 316.843 32.1877 314.723C31.1283 312.602 29.2504 310.88 26.7994 312.105C24.3573 313.325 24.6071 315.861 25.6665 317.981ZM30.5865 315.523C31.1586 316.668 30.8095 317.602 29.7987 318.107C28.7968 318.608 27.8399 318.326 27.2677 317.181C26.6956 316.036 27.0446 315.101 28.0465 314.601C29.0573 314.096 30.0143 314.378 30.5865 315.523Z" fill="white"/>
<path d="M19.4186 303.982L23.7172 303.368L20.3224 306.076L21.2262 308.169L25.5248 307.554L22.13 310.262L23.2598 312.878L28.7785 308.001L27.617 305.311L23.657 305.877L26.7846 303.383L25.6231 300.693L18.2888 301.366L19.4186 303.982Z" fill="white"/>
<path d="M15.2306 292.936L18.9869 291.59C19.9472 291.246 20.4048 291.486 20.7252 292.38C21.0422 293.265 20.8442 293.751 19.8839 294.094L16.1276 295.44L17.0549 298.029L20.9336 296.64C23.5225 295.712 23.1387 293.81 22.4103 291.777C21.6786 289.734 20.771 288.03 18.182 288.958L14.3033 290.347L15.2306 292.936Z" fill="white"/>
<path d="M15.1737 284.571C15.428 285.822 15.5513 286.317 15.1885 286.431C14.9117 286.517 14.638 286.278 14.352 285.361C14.0779 284.483 14.1646 284.089 14.5464 283.97L13.7183 281.316C12.4582 281.71 11.8546 282.998 12.7423 285.843C13.5496 288.43 14.6433 289.45 16.1134 288.991C17.4975 288.559 17.6811 287.57 17.2989 285.405C16.9079 283.212 16.8215 282.936 17.1747 282.825C17.4992 282.724 17.7395 283.058 18.0106 283.926C18.3472 285.005 18.3029 285.501 17.7874 285.662L18.6424 288.401C20.0934 287.948 20.6129 286.592 19.6715 283.576C18.8523 280.95 17.8674 279.54 16.1014 280.091C14.3258 280.645 14.6938 282.227 15.1737 284.571Z" fill="white"/>
<path d="M13.7314 276.646L15.2901 276.243L14.3029 272.429L12.7442 272.832L13.7314 276.646Z" fill="white"/>
<path d="M8.72654 261.995L6.95539 262.368L8.45772 269.501L15.3075 268.059L14.7407 265.368L12.2944 265.883L11.4186 261.724L9.74526 262.077L10.6211 266.235L9.66214 266.437L8.72654 261.995Z" fill="white"/>
<path d="M5.90159 257.111C6.29207 259.449 7.58012 261.636 10.2728 261.187C12.9754 260.735 13.4824 258.248 13.092 255.91C12.7015 253.572 11.4118 251.375 8.70923 251.826C6.01654 252.276 5.5111 254.774 5.90159 257.111ZM11.3264 256.205C11.5373 257.467 10.9293 258.258 9.81477 258.445C8.71008 258.629 7.87802 258.079 7.66712 256.816C7.45623 255.554 8.06422 254.763 9.16891 254.578C10.2835 254.392 11.1155 254.942 11.3264 256.205Z" fill="white"/>
<path d="M9.42178 243.666L9.97899 248.162L4.81848 248.801L5.15674 251.53L12.1036 250.669L11.2081 243.445L9.42178 243.666Z" fill="white"/>
<path d="M8.76702 236.275L9.1683 240.788L3.98874 241.248L4.23235 243.987L11.2048 243.367L10.5599 236.116L8.76702 236.275Z" fill="white"/>
<path d="M3.15632 231.233C3.26603 233.6 4.28476 235.926 7.01184 235.799C9.7489 235.672 10.5482 233.263 10.4385 230.895C10.3288 228.528 9.30959 226.193 6.57253 226.319C3.84546 226.446 3.0466 228.865 3.15632 231.233ZM8.65042 230.978C8.70967 232.257 8.01193 232.97 6.88315 233.022C5.76435 233.074 5.00365 232.429 4.9444 231.15C4.88514 229.871 5.58288 229.158 6.70168 229.106C7.83047 229.054 8.59117 229.7 8.65042 230.978Z" fill="white"/>
<path d="M3.11468 215.021L7.2912 216.21L3.08828 217.301L3.06187 219.581L7.23839 220.769L3.03547 221.861L3.00247 224.711L10.0285 222.502L10.0624 219.572L6.21486 218.477L10.0868 217.472L10.1207 214.542L3.14768 212.171L3.11468 215.021Z" fill="white"/>
<path d="M3.81655 202.694L7.79468 203.002C8.81165 203.081 9.13132 203.486 9.0581 204.434C8.98566 205.371 8.60664 205.733 7.58968 205.654L3.61154 205.346L3.3996 208.088L7.50735 208.406C10.2492 208.618 10.6763 206.725 10.8428 204.571C11.01 202.408 10.8781 200.482 8.13624 200.27L4.02849 199.953L3.81655 202.694Z" fill="white"/>
<path d="M7.09571 195.689C6.82006 196.935 6.73142 197.438 6.35396 197.394C6.06589 197.361 5.91293 197.031 6.02369 196.077C6.12983 195.164 6.36887 194.839 6.7662 194.885L7.08694 192.124C5.77575 191.971 4.70102 192.904 4.35721 195.864C4.04455 198.556 4.62962 199.932 6.15934 200.11C7.59966 200.277 8.1692 199.447 8.69884 197.314C9.23195 195.151 9.26541 194.863 9.63294 194.906C9.97067 194.945 10.0548 195.348 9.94981 196.252C9.81944 197.374 9.57764 197.809 9.04124 197.747L8.71012 200.598C10.22 200.773 11.2455 199.744 11.6101 196.605C11.9273 193.874 11.6 192.185 9.76238 191.971C7.9148 191.757 7.6087 193.352 7.09571 195.689Z" fill="white"/>
<path d="M9.04852 187.429L10.6365 187.694L11.2857 183.808L9.69768 183.543L9.04852 187.429Z" fill="white"/>
<path d="M10.2457 172.805L8.47451 172.432L6.97218 179.566L13.8219 181.008L14.3886 178.317L11.9423 177.802L12.8182 173.644L11.1449 173.291L10.269 177.45L9.31005 177.248L10.2457 172.805Z" fill="white"/>
<path d="M9.59755 167.301C9.01246 169.597 9.30921 172.118 11.9547 172.792C14.6099 173.469 16.0768 171.397 16.6619 169.1C17.247 166.804 16.9527 164.273 14.2975 163.596C11.652 162.922 10.1826 165.004 9.59755 167.301ZM14.9273 168.658C14.6113 169.899 13.736 170.377 12.641 170.098C11.5557 169.822 11.0161 168.983 11.3321 167.742C11.6481 166.502 12.5234 166.023 13.6088 166.3C14.7038 166.579 15.2433 167.418 14.9273 168.658Z" fill="white"/>
<path d="M18.4746 155.654L17.1578 159.988L12.1823 158.477L11.383 161.108L18.0807 163.143L20.1968 156.177L18.4746 155.654Z" fill="white"/>
<path d="M21.06 148.142L19.5807 152.423L14.6657 150.725L13.7677 153.325L20.384 155.61L22.7613 148.73L21.06 148.142Z" fill="white"/>
<path d="M17.8445 141.644C16.9787 143.85 16.96 146.389 19.5014 147.386C22.052 148.387 23.7649 146.514 24.6307 144.307C25.4964 142.101 25.5188 139.553 22.9681 138.552C20.4268 137.555 18.7103 139.438 17.8445 141.644ZM22.9644 143.653C22.4968 144.845 21.5688 145.211 20.5169 144.799C19.4743 144.389 19.0432 143.49 19.5108 142.298C19.9784 141.107 20.9063 140.74 21.9489 141.149C23.0008 141.562 23.432 142.462 22.9644 143.653Z" fill="white"/>
<path d="M23.7167 128.321L27.0604 131.091L22.774 130.397L21.8313 132.473L25.1751 135.243L20.8886 134.549L19.7103 137.144L27.0308 137.953L28.2422 135.285L25.1617 132.733L29.1105 133.373L30.3219 130.705L24.895 125.726L23.7167 128.321Z" fill="white"/>
<path d="M29.3629 117.234L32.8777 119.122C33.7762 119.605 33.9047 120.105 33.4551 120.942C33.0102 121.77 32.5173 121.948 31.6188 121.465L28.1039 119.577L26.8024 121.999L30.4318 123.949C32.8543 125.251 34.0096 123.692 35.0319 121.789C36.0589 119.878 36.7162 118.062 34.2937 116.761L30.6644 114.811L29.3629 117.234Z" fill="white"/>
<path d="M35.948 110.863C35.1864 111.888 34.8996 112.311 34.5731 112.116C34.324 111.968 34.3194 111.604 34.8107 110.779C35.2816 109.989 35.6325 109.791 35.9762 109.995L37.3989 107.607C36.2649 106.932 34.9028 107.342 33.3777 109.903C31.9907 112.231 31.9611 113.726 33.2842 114.514C34.5299 115.257 35.3891 114.732 36.7454 113.003C38.117 111.248 38.2654 110.998 38.5833 111.188C38.8754 111.362 38.7875 111.763 38.3217 112.545C37.7434 113.516 37.3448 113.814 36.8809 113.538L35.412 116.003C36.7179 116.781 38.0745 116.262 39.6918 113.548C41.0992 111.185 41.4918 109.51 39.9024 108.563C38.3045 107.611 37.3723 108.942 35.948 110.863Z" fill="white"/>
<path d="M40.2321 105.485L41.5776 106.369L43.7412 103.076L42.3957 102.192L40.2321 105.485Z" fill="white"/>
<path d="M47.5265 92.1724L46.0589 91.113L41.7921 97.0239L47.4679 101.121L49.0774 98.8912L47.0504 97.428L49.5378 93.982L48.1513 92.9811L45.6638 96.4271L44.8692 95.8535L47.5265 92.1724Z" fill="white"/>
<path d="M49.6452 86.2511C48.1753 88.1102 47.4192 90.5337 49.5607 92.2269C51.7101 93.9263 53.8938 92.6316 55.3637 90.7725C56.8336 88.9134 57.5959 86.4821 55.4466 84.7827C53.3051 83.0895 51.1151 84.392 49.6452 86.2511ZM53.9596 89.6623C53.1657 90.6664 52.1713 90.7471 51.2849 90.0462C50.4064 89.3516 50.2555 88.3654 51.0494 87.3613C51.8432 86.3573 52.8376 86.2766 53.7162 86.9712C54.6026 87.6721 54.7535 88.6583 53.9596 89.6623Z" fill="white"/>
<path d="M61.5325 80.3167L58.5829 83.7548L54.6363 80.369L52.8457 82.4561L58.1585 87.014L62.8987 81.4887L61.5325 80.3167Z" fill="white"/>
<path d="M67.5914 73.7479L64.5067 77.0654L60.6986 73.5244L58.826 75.5383L63.9523 80.305L68.9096 74.9737L67.5914 73.7479Z" fill="white"/>
<path d="M67.0169 66.7614C65.3349 68.4312 64.2941 70.7467 66.2175 72.6841C68.1479 74.6286 70.471 73.6047 72.1529 71.9349C73.8348 70.2652 74.8827 67.9426 72.9523 65.9981C71.0289 64.0607 68.6988 65.0917 67.0169 66.7614ZM70.8918 70.6646C69.9834 71.5664 68.9865 71.5274 68.1904 70.7255C67.4013 69.9307 67.3696 68.9335 68.278 68.0317C69.1864 67.1299 70.1832 67.1689 70.9723 67.9637C71.7684 68.7657 71.8002 69.7628 70.8918 70.6646Z" fill="white"/>
<path d="M78.475 56.2941L80.409 60.182L76.7719 57.8099L75.0687 59.3257L77.0027 63.2135L73.3655 60.8415L71.2366 62.7362L77.6009 66.4428L79.7897 64.4949L78.0078 60.9134L81.3584 63.0988L83.5471 61.1509L80.604 54.3994L78.475 56.2941Z" fill="white"/>
<path d="M88.0189 48.5397L90.4707 51.6876C91.0974 52.4923 91.0127 53.0019 90.2632 53.5857C89.5216 54.1633 88.9989 54.1268 88.3721 53.3221L85.9203 50.1743L83.7508 51.8641L86.2824 55.1145C87.9723 57.284 89.6591 56.3251 91.3632 54.9979C93.0751 53.6644 94.4099 52.2699 92.7201 50.1003L90.1884 46.8499L88.0189 48.5397Z" fill="white"/>
<path d="M95.5117 46.1665C94.4035 46.8003 93.9715 47.0729 93.7502 46.764C93.5813 46.5282 93.7227 46.1933 94.5031 45.6342C95.251 45.0985 95.652 45.0573 95.885 45.3825L98.145 43.7636C97.3763 42.6905 95.9637 42.5215 93.5411 44.2568C91.338 45.8349 90.712 47.1935 91.6088 48.4455C92.4532 49.6243 93.4504 49.4881 95.3857 48.4463C97.3454 47.3869 97.5811 47.2181 97.7966 47.5189C97.9946 47.7953 97.7532 48.1281 97.0135 48.658C96.0948 49.316 95.6102 49.4294 95.2958 48.9904L92.9626 50.6617C93.8477 51.8974 95.2986 51.9652 97.8675 50.125C100.103 48.5236 101.134 47.1459 100.056 45.6419C98.9732 44.1298 97.5863 44.9756 95.5117 46.1665Z" fill="white"/>
<path d="M102.619 42.2562L103.493 43.6082L106.802 41.4688L105.927 40.1168L102.619 42.2562Z" fill="white"/>
<path d="M114.693 33.0112L113.779 31.4494L107.488 35.1341L111.027 41.1741L113.399 39.7841L112.136 37.627L115.803 35.4788L114.939 34.0034L111.271 36.1515L110.776 35.3059L114.693 33.0112Z" fill="white"/>
<path d="M117.9 29.0522C115.808 30.1662 114.144 32.0834 115.427 34.493C116.715 36.9115 119.235 36.6007 121.327 35.4868C123.419 34.3728 125.092 32.4509 123.804 30.0325C122.521 27.6228 119.992 27.9383 117.9 29.0522ZM120.485 33.9068C119.356 34.5085 118.412 34.1837 117.881 33.1863C117.355 32.1978 117.612 31.2338 118.742 30.6322C119.871 30.0305 120.815 30.3553 121.341 31.3438C121.872 32.3412 121.615 33.3052 120.485 33.9068Z" fill="white"/>
<path d="M132.562 27.7121L128.473 29.6615L126.235 24.9675L123.753 26.1509L126.765 32.4696L133.337 29.3369L132.562 27.7121Z" fill="white"/>
<path d="M139.711 24.6124L135.552 26.4082L133.491 21.6342L130.966 22.7244L133.741 29.1509L140.425 26.265L139.711 24.6124Z" fill="white"/>
<path d="M142.165 17.9139C139.953 18.7632 138.066 20.462 139.044 23.0107C140.026 25.5687 142.565 25.5691 144.778 24.7199C146.99 23.8707 148.886 22.1683 147.904 19.6102C146.926 17.0615 144.378 17.0647 142.165 17.9139ZM144.136 23.0487C142.941 23.5074 142.045 23.0695 141.64 22.0146C141.239 20.9689 141.612 20.0437 142.807 19.5851C144.002 19.1264 144.898 19.5643 145.3 20.6099C145.704 21.6649 145.331 22.5901 144.136 23.0487Z" fill="white"/>
<path d="M157.389 12.797L157.581 17.1351L155.217 13.4927L153.046 14.1883L153.239 18.5263L150.875 14.8839L148.161 15.7534L152.477 21.721L155.268 20.8271L155.09 16.8308L157.267 20.1864L160.058 19.2924L160.103 11.9275L157.389 12.797Z" fill="white"/>
<path d="M168.474 9.7818L169.445 13.652C169.693 14.6414 169.409 15.0733 168.488 15.3043C167.576 15.5329 167.113 15.2883 166.865 14.2989L165.894 10.4287L163.227 11.0974L164.229 15.0938C164.897 17.7612 166.828 17.5659 168.923 17.0406C171.028 16.5129 172.813 15.7768 172.144 13.1093L171.142 9.11303L168.474 9.7818Z" fill="white"/>
<path d="M176.778 10.5287C175.508 10.6584 175.002 10.7322 174.925 10.3601C174.867 10.0761 175.132 9.82729 176.072 9.63304C176.973 9.44689 177.356 9.57193 177.437 9.96365L180.16 9.40113C179.892 8.10844 178.67 7.38076 175.752 7.98375C173.098 8.5321 171.974 9.51984 172.286 11.028C172.579 12.448 173.546 12.7282 175.738 12.5613C177.958 12.3883 178.242 12.3296 178.317 12.692C178.386 13.0249 178.031 13.2312 177.139 13.4153C176.033 13.6439 175.544 13.551 175.435 13.0221L172.624 13.6029C172.931 15.0914 174.23 15.7421 177.325 15.1027C180.018 14.5463 181.519 13.7052 181.144 11.8934C180.768 10.0719 179.157 10.2822 176.778 10.5287Z" fill="white"/>
<path d="M184.069 9.96707L184.322 11.5571L188.213 10.9377L187.96 9.34771L184.069 9.96707Z" fill="white"/>
<path d="M199.675 6.28908L199.474 4.49038L192.229 5.3036L193.01 12.2599L195.743 11.9531L195.464 9.46874L199.687 8.99464L199.497 7.29531L195.273 7.76942L195.164 6.79553L199.675 6.28908Z" fill="white"/>
<path d="M205.061 3.91092C202.697 4.07536 200.396 5.14761 200.585 7.87103C200.775 10.6044 203.203 11.3478 205.567 11.1833C207.931 11.0189 210.243 9.94597 210.052 7.21257C209.863 4.48915 207.426 3.74648 205.061 3.91092ZM205.443 9.39766C204.166 9.48648 203.437 8.80542 203.359 7.67814C203.281 6.56084 203.909 5.78542 205.186 5.6966C206.462 5.60779 207.191 6.28885 207.269 7.40615C207.348 8.53343 206.72 9.30885 205.443 9.39766Z" fill="white"/>
<path d="M216.797 8.71887L212.269 8.85872L212.109 3.6612L209.36 3.7461L209.576 10.7428L216.853 10.518L216.797 8.71887Z" fill="white"/>
<path d="M226.399 8.75978L221.869 8.70732L221.929 3.50767L219.18 3.47582L219.099 10.4754L226.378 10.5597L226.399 8.75978Z" fill="white"/>
<path d="M232.301 3.6782C229.934 3.55023 227.518 4.33093 227.371 7.05695C227.223 9.79295 229.54 10.8296 231.907 10.9576C234.274 11.0855 236.699 10.3054 236.847 7.56936C236.995 4.84334 234.667 3.80616 232.301 3.6782ZM232.004 9.17017C230.726 9.10106 230.086 8.33541 230.147 7.20706C230.207 6.08869 230.926 5.39647 232.204 5.46558C233.482 5.5347 234.122 6.30035 234.061 7.41872C234 8.54707 233.282 9.23929 232.004 9.17017Z" fill="white"/>
<path d="M247.58 5.14308L245.995 9.18588L245.313 4.89745L243.046 4.65182L241.462 8.69463L240.78 4.4062L237.946 4.09917L239.469 11.3051L242.382 11.6208L243.841 7.89636L244.47 11.847L247.382 12.1627L250.413 5.45011L247.58 5.14308Z" fill="white"/>
<path d="M259.477 6.97685L258.79 10.9072C258.614 11.9119 258.179 12.1912 257.243 12.0275C256.318 11.8655 255.994 11.4536 256.169 10.4488L256.857 6.51851L254.148 6.04466L253.438 10.103C252.964 12.8119 254.807 13.4185 256.935 13.7907C259.073 14.1646 261.002 14.2179 261.476 11.5091L262.186 7.4507L259.477 6.97685Z" fill="white"/>
<path d="M266.838 11.0624C265.625 10.6642 265.134 10.526 265.215 10.1548C265.277 9.87145 265.62 9.75203 266.558 9.95703C267.457 10.1535 267.756 10.4236 267.67 10.8144L270.386 11.408C270.668 10.1185 269.847 8.9564 266.936 8.32005C264.289 7.74136 262.861 8.18669 262.532 9.69117C262.222 11.1077 262.991 11.7569 265.061 12.496C267.16 13.2415 267.444 13.3034 267.365 13.6648C267.292 13.997 266.883 14.0407 265.994 13.8464C264.89 13.6051 264.482 13.3213 264.597 12.7937L261.793 12.1809C261.469 13.6658 262.39 14.7885 265.477 15.4633C268.164 16.0505 269.877 15.8927 270.272 14.0854C270.669 12.2683 269.112 11.8051 266.838 11.0624Z" fill="white"/>
<path d="M273.58 13.4869L273.164 15.0424L276.971 16.0585L277.386 14.503L273.58 13.4869Z" fill="white"/>
<path d="M288.932 16.3509L289.478 14.6251L282.527 12.4272L280.417 19.1014L283.039 19.9306L283.792 17.5469L287.845 18.8283L288.36 17.1979L284.308 15.9165L284.603 14.9821L288.932 16.3509Z" fill="white"/>
<path d="M294.247 16.158C292.019 15.3504 289.481 15.3984 288.55 17.9651C287.617 20.5411 289.535 22.2042 291.763 23.0117C293.991 23.8193 296.539 23.7747 297.473 21.1987C298.403 18.632 296.475 16.9655 294.247 16.158ZM292.373 21.3288C291.17 20.8927 290.779 19.9747 291.164 18.9123C291.546 17.8593 292.434 17.4047 293.637 17.8409C294.841 18.277 295.231 19.195 294.85 20.248C294.464 21.3104 293.576 21.765 292.373 21.3288Z" fill="white"/>
<path d="M303.813 25.6279L299.621 23.9101L301.593 19.0985L299.048 18.0557L296.394 24.5329L303.13 27.2935L303.813 25.6279Z" fill="white"/>
<path d="M312.321 29.4708L308.204 27.5825L310.371 22.8558L307.872 21.7095L304.954 28.0724L311.571 31.107L312.321 29.4708Z" fill="white"/>
<path d="M318.876 26.7867C316.764 25.7116 314.239 25.4476 313.001 27.8805C311.758 30.3224 313.457 32.2085 315.57 33.2835C317.682 34.3586 320.216 34.6272 321.459 32.1853C322.697 29.7523 320.989 27.8617 318.876 26.7867ZM316.382 31.6883C315.241 31.1077 314.966 30.1486 315.479 29.1416C315.987 28.1434 316.924 27.8013 318.064 28.3819C319.205 28.9626 319.48 29.9216 318.972 30.9197C318.459 31.9268 317.522 32.2689 316.382 31.6883Z" fill="white"/>
<path d="M332.599 34.5163L329.509 37.5669L330.628 33.3712L328.656 32.226L325.566 35.2765L326.685 31.0808L324.22 29.6493L322.685 36.8525L325.218 38.3242L328.065 35.5138L327.034 39.3789L329.568 40.8506L335.064 35.9478L332.599 34.5163Z" fill="white"/>
<path d="M341.836 40.4281L339.621 43.7465C339.055 44.5948 338.544 44.6749 337.754 44.1474C336.972 43.6255 336.842 43.1179 337.409 42.2695L339.624 38.9511L337.337 37.4242L335.049 40.8507C333.523 43.1379 334.964 44.4368 336.76 45.6361C338.565 46.841 340.309 47.6687 341.836 45.3815L344.124 41.955L341.836 40.4281Z" fill="white"/>
<path d="M347.635 47.6367C346.688 46.7811 346.294 46.4553 346.519 46.1489C346.69 45.915 347.052 45.945 347.827 46.5126C348.569 47.0565 348.733 47.4247 348.496 47.7473L350.738 49.3908C351.519 48.3262 351.239 46.9312 348.836 45.1694C346.65 43.5673 345.164 43.3955 344.254 44.6376C343.397 45.807 343.837 46.7123 345.429 48.2269C347.046 49.7593 347.28 49.9307 347.061 50.2292C346.86 50.5034 346.469 50.3777 345.735 49.8397C344.824 49.1716 344.565 48.7464 344.884 48.3109L342.569 46.6142C341.671 47.8401 342.058 49.2399 344.607 51.1081C346.825 52.7339 348.455 53.2841 349.549 51.792C350.648 50.2919 349.413 49.2373 347.635 47.6367Z" fill="white"/>
<path d="M353.538 53.1627L352.526 54.4146L355.59 56.8919L356.602 55.64L353.538 53.1627Z" fill="white"/>
<path d="M366.036 61.7188L367.234 60.3623L361.771 55.5356L357.136 60.7815L359.197 62.6023L360.852 60.7288L364.037 63.5427L365.169 62.2612L361.984 59.4473L362.633 58.7128L366.036 61.7188Z" fill="white"/>
<path d="M370.76 63.5016C369.048 61.8627 366.706 60.8811 364.818 62.8532C362.924 64.8324 364.006 67.1287 365.718 68.7676C367.43 70.4065 369.779 71.395 371.674 69.4157C373.561 67.4437 372.472 65.1405 370.76 63.5016ZM366.956 67.4746C366.032 66.5894 366.045 65.5919 366.827 64.7756C367.601 63.9666 368.597 63.9095 369.522 64.7946C370.446 65.6798 370.433 66.6773 369.658 67.4864C368.877 68.3026 367.881 68.3597 366.956 67.4746Z" fill="white"/>
<path d="M376.452 76.8452L373.32 73.5729L377.076 69.977L375.174 67.9905L370.118 72.8312L375.152 78.0899L376.452 76.8452Z" fill="white"/>
<path d="M381.546 82.5553L378.534 79.1713L382.419 75.7143L380.591 73.66L375.362 78.3138L380.202 83.752L381.546 82.5553Z" fill="white"/>
<path d="M388.591 82.6745C387.087 80.8425 384.881 79.5878 382.77 81.3197C380.652 83.058 381.452 85.4673 382.956 87.2993C384.459 89.1313 386.673 90.3938 388.791 88.6555C390.901 86.9236 390.095 84.5066 388.591 82.6745ZM384.339 86.1637C383.527 85.1743 383.66 84.1855 384.534 83.4687C385.4 82.7581 386.395 82.8207 387.207 83.8101C388.019 84.7996 387.886 85.7883 387.021 86.4989C386.147 87.2157 385.152 87.1532 384.339 86.1637Z" fill="white"/>
<path d="M397.957 95.0931L393.903 96.6508L396.609 93.2542L395.261 91.4153L391.207 92.973L393.913 89.5764L392.228 87.2778L387.936 93.2632L389.668 95.6263L393.402 94.1911L390.91 97.32L392.642 99.6831L399.642 97.3917L397.957 95.0931Z" fill="white"/>
<path d="M404.815 105.379L401.448 107.521C400.588 108.068 400.089 107.935 399.579 107.134C399.074 106.341 399.16 105.824 400.02 105.276L403.387 103.134L401.911 100.814L398.435 103.026C396.114 104.502 396.909 106.272 398.068 108.095C399.233 109.926 400.495 111.387 402.815 109.911L406.291 107.699L404.815 105.379Z" fill="white"/>
<path d="M406.558 113.212C406.032 112.049 405.802 111.593 406.13 111.402C406.381 111.256 406.701 111.429 407.183 112.259C407.645 113.054 407.648 113.457 407.302 113.658L408.699 116.062C409.84 115.399 410.143 114.009 408.646 111.432C407.285 109.089 405.992 108.336 404.661 109.11C403.407 109.838 403.447 110.844 404.3 112.87C405.168 114.921 405.314 115.172 404.994 115.358C404.7 115.529 404.391 115.257 403.934 114.47C403.367 113.493 403.3 112.999 403.767 112.728L402.325 110.246C401.011 111.01 400.805 112.448 402.393 115.18C403.774 117.558 405.047 118.715 406.647 117.786C408.255 116.852 407.545 115.391 406.558 113.212Z" fill="white"/>
<path d="M409.786 120.688L408.356 121.428L410.17 124.926L411.599 124.186L409.786 120.688Z" fill="white"/>
<path d="M417.884 133.705L419.526 132.945L416.463 126.33L410.111 129.271L411.266 131.766L413.535 130.716L415.321 134.572L416.873 133.854L415.087 129.997L415.976 129.586L417.884 133.705Z" fill="white"/>
<path d="M421.615 137.526C420.708 135.337 418.96 133.495 416.438 134.54C413.906 135.589 413.973 138.126 414.879 140.316C415.786 142.506 417.538 144.356 420.069 143.308C422.592 142.263 422.522 139.716 421.615 137.526ZM416.533 139.631C416.043 138.448 416.458 137.541 417.502 137.108C418.536 136.68 419.471 137.029 419.961 138.211C420.451 139.394 420.036 140.302 419.002 140.73C417.958 141.163 417.023 140.814 416.533 139.631Z" fill="white"/>
<path d="M421.473 152.131L419.929 147.872L424.818 146.1L423.881 143.515L417.3 145.9L419.78 152.744L421.473 152.131Z" fill="white"/>
<path d="M423.904 159.687L422.522 155.373L427.474 153.786L426.635 151.167L419.969 153.303L422.19 160.236L423.904 159.687Z" fill="white"/>
<path d="M430.402 163.066C429.773 160.78 428.267 158.737 425.635 159.461C422.993 160.187 422.744 162.714 423.373 164.999C424.002 167.284 425.51 169.338 428.152 168.611C430.784 167.887 431.03 165.351 430.402 163.066ZM425.099 164.524C424.759 163.29 425.283 162.441 426.372 162.141C427.452 161.844 428.337 162.306 428.676 163.54C429.016 164.774 428.492 165.624 427.412 165.921C426.323 166.22 425.438 165.758 425.099 164.524Z" fill="white"/>
<path d="M433.751 177.588L429.415 177.369L433.264 175.361L432.778 173.133L428.441 172.914L432.291 170.906L431.682 168.122L425.333 171.854L425.958 174.716L429.953 174.918L426.407 176.768L427.032 179.63L434.36 180.372L433.751 177.588Z" fill="white"/>
<path d="M435.786 189.414L431.841 190.011C430.832 190.164 430.429 189.84 430.287 188.901C430.146 187.971 430.434 187.534 431.443 187.381L435.388 186.784L434.976 184.065L430.903 184.681C428.183 185.093 428.194 187.033 428.517 189.169C428.842 191.314 429.404 193.161 432.123 192.749L436.197 192.133L435.786 189.414Z" fill="white"/>
<path d="M434.27 197.869C434.262 196.592 434.237 196.082 434.615 196.041C434.903 196.01 435.125 196.297 435.229 197.252C435.328 198.166 435.167 198.536 434.769 198.579L435.068 201.343C436.381 201.201 437.222 200.053 436.901 197.091C436.609 194.396 435.733 193.184 434.202 193.35C432.761 193.506 432.389 194.441 432.346 196.639C432.306 198.866 432.337 199.154 431.969 199.194C431.631 199.231 431.46 198.857 431.362 197.952C431.24 196.829 431.379 196.351 431.916 196.293L431.607 193.44C430.096 193.603 429.324 194.834 429.664 197.975C429.96 200.709 430.654 202.284 432.493 202.084C434.343 201.884 434.287 200.261 434.27 197.869Z" fill="white"/>
<path d="M434.143 205.59L432.536 205.69L432.779 209.622L434.386 209.523L434.143 205.59Z" fill="white"/>
<path d="M436.282 221.353L438.092 221.325L437.979 214.036L430.98 214.144L431.022 216.894L433.522 216.855L433.588 221.105L435.297 221.078L435.232 216.829L436.212 216.814L436.282 221.353Z" fill="white"/>
</svg>
