<svg width="161" height="76" viewBox="0 0 161 76" fill="none" xmlns="http://www.w3.org/2000/svg">
<path d="M44.2341 38.2522C51.7817 38.2522 57.2496 43.967 57.2496 51.6174C57.2496 52.2857 57.2029 52.8848 57.1562 53.4839C57.0627 54.2905 56.5253 54.6592 55.7541 54.6592H38.4858C39.4205 57.6779 41.8273 58.8531 44.5379 58.8531C45.9866 58.8531 47.4354 58.3461 48.3701 57.5857C48.8842 57.1709 49.3048 56.9174 49.9824 56.9174L54.9363 56.8713C55.871 56.8713 56.3851 57.4705 55.9644 58.3C53.9549 62.7013 49.702 64.9826 44.4444 64.9826C35.8687 64.9826 30.3774 59.1526 30.3774 51.6174C30.3774 44.0822 36.0556 38.2522 44.2341 38.2522ZM38.5559 49.0826H49.5385C48.744 46.1791 46.4774 45.1652 44.2341 45.1652C41.3366 45.1652 39.3504 46.5478 38.5559 49.0826ZM71.1531 45.6031C71.1531 49.5435 85.2903 45.8796 85.2903 56.2491C85.2903 62.3787 79.9859 64.9826 74.0273 64.9826C68.5126 64.9826 63.5121 62.54 62.8811 56.8944C62.7643 55.9957 63.3251 55.5118 64.1897 55.5118H69.494C70.3119 55.5118 70.5689 55.9265 70.9662 56.6409C71.4102 57.5396 72.4383 58.0696 74.0507 58.0696C76.3173 58.0696 77.1819 57.3322 77.1819 56.2491C77.1819 52.4239 63.0447 55.9266 63.0447 45.6031C63.0447 39.5887 68.3491 36.8696 74.0273 36.8696C79.0746 36.8696 83.9817 39.3122 84.636 44.9578C84.7528 45.8565 84.192 46.3405 83.3274 46.3405H78.0231C77.2052 46.3405 76.9482 45.9257 76.5509 45.1652C76.1771 44.3126 75.2424 43.7826 74.0039 43.7826C72.0177 43.7826 71.1531 44.5431 71.1531 45.6031ZM92.1369 64.9826C91.3424 64.9826 90.8984 64.4987 90.8984 63.6461V39.5887C90.8984 38.7361 91.3424 38.2522 92.1369 38.2522H97.1141C97.9086 38.2522 98.3525 38.7361 98.3525 39.5887V63.6461C98.3525 64.4987 97.9086 64.9826 97.1141 64.9826H92.1369ZM159.598 64.9826H154.925C154.153 64.9826 153.523 64.3605 153.523 63.6V50.2348C153.523 47.677 151.419 45.6261 148.849 45.6261C146.279 45.6261 144.176 47.7 144.176 50.2348V63.6C144.176 64.3605 143.545 64.9826 142.774 64.9826H138.1C137.329 64.9826 136.698 64.3605 136.698 63.6V50.2348C136.698 43.6213 142.143 38.2522 148.849 38.2522C155.555 38.2522 161 43.6213 161 50.2348V63.6C161 64.3605 160.369 64.9826 159.598 64.9826ZM11.6135 38.2522C19.091 38.2522 24.7692 44.0592 24.7692 51.6174C24.7692 59.1757 19.091 64.9826 11.6135 64.9826H2.33672C1.05152 64.9826 0 63.9457 0 62.6783V40.5565C0 39.2891 1.05152 38.2522 2.33672 38.2522H11.6135ZM7.4775 45.6261V57.6087H11.2163C14.5811 57.6087 17.2917 54.9357 17.2917 51.6174C17.2917 48.2992 14.5811 45.6261 11.2163 45.6261H7.4775ZM131.09 51.6174C131.09 50.6957 131.09 54.5439 131.09 63.1392C131.09 71.2274 127.234 75.5135 119.5 75.9974C118.729 76.0435 118.051 75.4674 118.004 74.707C118.004 74.6839 118.004 74.6609 118.004 74.6148V70.1674C118.004 69.407 118.635 68.7848 119.406 68.7848C122.234 68.7848 123.659 67.1487 123.659 63.8766V63.6C121.813 64.4987 119.757 65.0057 117.537 65.0057C110.013 65.0057 103.984 59.1757 103.984 51.6404C103.984 44.1052 110.013 38.2752 117.537 38.2752C125.061 38.2752 131.09 44.0822 131.09 51.6174ZM117.771 57.3783C121.019 57.3783 123.612 54.8665 123.612 51.6174C123.612 48.3683 121.019 45.8565 117.771 45.8565C114.523 45.8565 111.929 48.3683 111.929 51.6174C111.929 54.8665 114.523 57.3783 117.771 57.3783ZM156.093 11.0609C153.382 11.0609 151.186 8.89479 151.186 6.22174C151.186 3.5487 153.382 1.38261 156.093 1.38261C158.803 1.38261 161 3.5487 161 6.22174C161 8.89479 158.803 11.0609 156.093 11.0609ZM84.9398 8.73348C84.9398 12.6739 99.0769 9.01 99.0769 19.3796C99.0769 25.5091 93.7726 28.1131 87.8139 28.1131C82.2993 28.1131 77.2987 25.6704 76.6678 20.0248C76.5509 19.1261 77.1118 18.6422 77.9763 18.6422H83.2807C84.0986 18.6422 84.3556 19.057 84.7528 19.7713C85.1968 20.67 86.225 21.2 87.8373 21.2C90.1039 21.2 90.9685 20.4626 90.9685 19.3796C90.9685 15.5544 76.8314 19.057 76.8314 8.73348C76.8314 2.71913 82.1357 0 87.8139 0C92.8612 0 97.7684 2.44261 98.4226 8.08827C98.5395 8.98696 97.9787 9.47087 97.1141 9.47087H91.8097C90.9919 9.47087 90.7348 9.05609 90.3376 8.29566C89.9637 7.44305 89.029 6.91305 87.7906 6.91305C85.8044 6.91305 84.9398 7.67348 84.9398 8.73348ZM105.924 28.1131C105.129 28.1131 104.685 27.6291 104.685 26.7765V2.71913C104.685 1.86652 105.129 1.38261 105.924 1.38261H110.901C111.695 1.38261 112.139 1.86652 112.139 2.71913V26.7765C112.139 27.6291 111.695 28.1131 110.901 28.1131H105.924ZM48.1364 1.38261H52.8099C53.581 1.38261 54.2119 2.00478 54.2119 2.76522V16.1304C54.2119 18.6883 56.3149 20.7391 58.8853 20.7391C61.4557 20.7391 63.5588 18.6652 63.5588 16.1304V2.76522C63.5588 2.00478 64.1897 1.38261 64.9608 1.38261H69.6343C70.4054 1.38261 71.0363 2.00478 71.0363 2.76522V16.1304C71.0363 22.7439 65.5917 28.1131 58.8853 28.1131C52.179 28.1131 46.7344 22.7439 46.7344 16.1304V2.76522C46.7344 2.00478 47.3653 1.38261 48.1364 1.38261ZM16.8244 13.2039C16.7309 10.7383 14.6746 8.75653 12.1509 8.75653C9.58055 8.75653 7.4775 10.8304 7.4775 13.3652V26.7304C7.4775 27.4909 6.84659 28.1131 6.07547 28.1131H1.40203C0.630914 28.1131 0 27.4909 0 26.7304V13.3652C0 6.75174 5.44456 1.38261 12.1509 1.38261C15.4224 1.38261 18.39 2.65 20.5631 4.72392C22.7363 2.65 25.7039 1.38261 28.9753 1.38261C35.6817 1.38261 41.1263 6.75174 41.1263 13.3652V26.7304C41.1263 27.4909 40.4954 28.1131 39.7242 28.1131H35.0508C34.2797 28.1131 33.6488 27.4909 33.6488 26.7304V13.3652C33.6488 10.8074 31.5457 8.75653 28.9753 8.75653C26.4049 8.75653 24.3019 10.8304 24.3019 13.3652V26.7304C24.3019 27.4909 23.671 28.1131 22.8999 28.1131H18.2264C17.4553 28.1131 16.8244 27.4909 16.8244 26.7304V13.3652C16.8244 13.3191 16.8244 13.25 16.8244 13.2039ZM140.834 24.0344C135.53 29.2652 127.071 29.3574 121.673 24.0344C116.275 18.7113 116.345 10.3696 121.673 5.1387C125.342 1.52087 130.529 0.345654 135.156 1.75131C135.81 1.9587 136.768 2.37348 138.03 2.99565L128.753 12.1439L133.777 17.0983L143.031 7.97305C143.662 9.19435 144.059 10.1161 144.269 10.7613C145.694 15.3239 144.503 20.4165 140.834 24.0344Z" fill="white"/>
</svg>
